<mxfile host="app.diagrams.net" modified="2020-11-09T14:19:57.811Z" agent="5.0 (Windows NT 6.1) AppleWebKit/537.36 (KHTML, like Gecko) Chrome/86.0.4240.183 Safari/537.36" etag="JOavKMIPCQkzE47NwrB_" version="13.9.2" type="github">
  <diagram id="Gw-OTtRD4lfyqZLyE981" name="Страница 1">
    <mxGraphModel dx="1709" dy="459" grid="1" gridSize="10" guides="1" tooltips="1" connect="1" arrows="1" fold="1" page="1" pageScale="1" pageWidth="827" pageHeight="1169" math="0" shadow="0">
      <root>
        <mxCell id="0" />
        <mxCell id="1" parent="0" />
        <mxCell id="YFGiQ5MIki4B_HdZWA-Z-1" style="edgeStyle=none;rounded=0;orthogonalLoop=1;jettySize=auto;html=1;exitX=1;exitY=0.5;exitDx=0;exitDy=0;entryX=0;entryY=0.5;entryDx=0;entryDy=0;endArrow=none;endFill=0;" parent="1" source="YFGiQ5MIki4B_HdZWA-Z-7" target="YFGiQ5MIki4B_HdZWA-Z-14" edge="1">
          <mxGeometry relative="1" as="geometry" />
        </mxCell>
        <mxCell id="YFGiQ5MIki4B_HdZWA-Z-2" style="edgeStyle=none;rounded=0;orthogonalLoop=1;jettySize=auto;html=1;exitX=0;exitY=0;exitDx=0;exitDy=0;entryX=0.75;entryY=1;entryDx=0;entryDy=0;endArrow=none;endFill=0;" parent="1" source="YFGiQ5MIki4B_HdZWA-Z-7" target="YFGiQ5MIki4B_HdZWA-Z-44" edge="1">
          <mxGeometry relative="1" as="geometry" />
        </mxCell>
        <mxCell id="YFGiQ5MIki4B_HdZWA-Z-3" style="edgeStyle=none;rounded=0;orthogonalLoop=1;jettySize=auto;html=1;exitX=0.5;exitY=1;exitDx=0;exitDy=0;endArrow=classic;endFill=1;fillColor=#dae8fc;strokeColor=#6c8ebf;" parent="1" source="YFGiQ5MIki4B_HdZWA-Z-7" target="YFGiQ5MIki4B_HdZWA-Z-74" edge="1">
          <mxGeometry relative="1" as="geometry" />
        </mxCell>
        <mxCell id="YFGiQ5MIki4B_HdZWA-Z-4" style="edgeStyle=none;rounded=0;orthogonalLoop=1;jettySize=auto;html=1;exitX=0.75;exitY=1;exitDx=0;exitDy=0;endArrow=classic;endFill=1;fillColor=#d5e8d4;strokeColor=#82b366;" parent="1" source="YFGiQ5MIki4B_HdZWA-Z-7" target="YFGiQ5MIki4B_HdZWA-Z-77" edge="1">
          <mxGeometry relative="1" as="geometry" />
        </mxCell>
        <mxCell id="YFGiQ5MIki4B_HdZWA-Z-5" style="edgeStyle=none;rounded=0;orthogonalLoop=1;jettySize=auto;html=1;exitX=0.25;exitY=0;exitDx=0;exitDy=0;endArrow=classic;endFill=1;fillColor=#f8cecc;strokeColor=#b85450;" parent="1" source="YFGiQ5MIki4B_HdZWA-Z-7" target="YFGiQ5MIki4B_HdZWA-Z-80" edge="1">
          <mxGeometry relative="1" as="geometry" />
        </mxCell>
        <mxCell id="YFGiQ5MIki4B_HdZWA-Z-6" style="edgeStyle=none;rounded=0;orthogonalLoop=1;jettySize=auto;html=1;exitX=0.75;exitY=0;exitDx=0;exitDy=0;entryX=0.25;entryY=1;entryDx=0;entryDy=0;fillColor=#d5e8d4;strokeColor=#82b366;" parent="1" source="YFGiQ5MIki4B_HdZWA-Z-7" target="YFGiQ5MIki4B_HdZWA-Z-89" edge="1">
          <mxGeometry relative="1" as="geometry" />
        </mxCell>
        <mxCell id="YFGiQ5MIki4B_HdZWA-Z-7" value="рулонные шторы" style="rounded=1;whiteSpace=wrap;html=1;" parent="1" vertex="1">
          <mxGeometry x="370" y="550" width="120" height="30" as="geometry" />
        </mxCell>
        <mxCell id="YFGiQ5MIki4B_HdZWA-Z-8" style="edgeStyle=none;rounded=0;orthogonalLoop=1;jettySize=auto;html=1;exitX=1;exitY=0.5;exitDx=0;exitDy=0;entryX=0;entryY=0.5;entryDx=0;entryDy=0;endArrow=none;endFill=0;" parent="1" source="YFGiQ5MIki4B_HdZWA-Z-14" target="YFGiQ5MIki4B_HdZWA-Z-18" edge="1">
          <mxGeometry relative="1" as="geometry" />
        </mxCell>
        <mxCell id="YFGiQ5MIki4B_HdZWA-Z-9" style="edgeStyle=none;rounded=0;orthogonalLoop=1;jettySize=auto;html=1;exitX=0.5;exitY=1;exitDx=0;exitDy=0;endArrow=classic;endFill=1;fillColor=#dae8fc;strokeColor=#6c8ebf;" parent="1" source="YFGiQ5MIki4B_HdZWA-Z-14" target="YFGiQ5MIki4B_HdZWA-Z-74" edge="1">
          <mxGeometry relative="1" as="geometry" />
        </mxCell>
        <mxCell id="YFGiQ5MIki4B_HdZWA-Z-10" style="edgeStyle=none;rounded=0;orthogonalLoop=1;jettySize=auto;html=1;exitX=0.75;exitY=1;exitDx=0;exitDy=0;endArrow=classic;endFill=1;fillColor=#d5e8d4;strokeColor=#82b366;" parent="1" source="YFGiQ5MIki4B_HdZWA-Z-14" target="YFGiQ5MIki4B_HdZWA-Z-77" edge="1">
          <mxGeometry relative="1" as="geometry" />
        </mxCell>
        <mxCell id="YFGiQ5MIki4B_HdZWA-Z-11" style="edgeStyle=none;rounded=0;orthogonalLoop=1;jettySize=auto;html=1;exitX=0.25;exitY=0;exitDx=0;exitDy=0;entryX=0.75;entryY=0;entryDx=0;entryDy=0;endArrow=classic;endFill=1;fillColor=#f8cecc;strokeColor=#b85450;" parent="1" source="YFGiQ5MIki4B_HdZWA-Z-14" target="YFGiQ5MIki4B_HdZWA-Z-80" edge="1">
          <mxGeometry relative="1" as="geometry" />
        </mxCell>
        <mxCell id="YFGiQ5MIki4B_HdZWA-Z-12" style="edgeStyle=none;rounded=0;orthogonalLoop=1;jettySize=auto;html=1;exitX=1;exitY=0;exitDx=0;exitDy=0;endArrow=none;endFill=0;" parent="1" source="YFGiQ5MIki4B_HdZWA-Z-14" target="YFGiQ5MIki4B_HdZWA-Z-69" edge="1">
          <mxGeometry relative="1" as="geometry" />
        </mxCell>
        <mxCell id="YFGiQ5MIki4B_HdZWA-Z-13" style="edgeStyle=none;rounded=0;orthogonalLoop=1;jettySize=auto;html=1;exitX=0.5;exitY=0;exitDx=0;exitDy=0;entryX=0.5;entryY=1;entryDx=0;entryDy=0;fillColor=#d5e8d4;strokeColor=#82b366;" parent="1" source="YFGiQ5MIki4B_HdZWA-Z-14" target="YFGiQ5MIki4B_HdZWA-Z-89" edge="1">
          <mxGeometry relative="1" as="geometry" />
        </mxCell>
        <mxCell id="YFGiQ5MIki4B_HdZWA-Z-14" value="День ночь" style="rounded=1;whiteSpace=wrap;html=1;" parent="1" vertex="1">
          <mxGeometry x="510" y="550" width="70" height="30" as="geometry" />
        </mxCell>
        <mxCell id="YFGiQ5MIki4B_HdZWA-Z-15" style="edgeStyle=none;rounded=0;orthogonalLoop=1;jettySize=auto;html=1;exitX=1;exitY=0.5;exitDx=0;exitDy=0;entryX=0;entryY=0.5;entryDx=0;entryDy=0;endArrow=none;endFill=0;" parent="1" source="YFGiQ5MIki4B_HdZWA-Z-18" target="YFGiQ5MIki4B_HdZWA-Z-22" edge="1">
          <mxGeometry relative="1" as="geometry" />
        </mxCell>
        <mxCell id="YFGiQ5MIki4B_HdZWA-Z-16" style="edgeStyle=none;rounded=0;orthogonalLoop=1;jettySize=auto;html=1;exitX=0.75;exitY=1;exitDx=0;exitDy=0;endArrow=classic;endFill=1;fillColor=#d5e8d4;strokeColor=#82b366;" parent="1" source="YFGiQ5MIki4B_HdZWA-Z-18" target="YFGiQ5MIki4B_HdZWA-Z-77" edge="1">
          <mxGeometry relative="1" as="geometry" />
        </mxCell>
        <mxCell id="YFGiQ5MIki4B_HdZWA-Z-17" style="edgeStyle=none;rounded=0;orthogonalLoop=1;jettySize=auto;html=1;exitX=0.75;exitY=0;exitDx=0;exitDy=0;entryX=0.797;entryY=1.014;entryDx=0;entryDy=0;entryPerimeter=0;fillColor=#d5e8d4;strokeColor=#82b366;" parent="1" source="YFGiQ5MIki4B_HdZWA-Z-18" target="YFGiQ5MIki4B_HdZWA-Z-89" edge="1">
          <mxGeometry relative="1" as="geometry" />
        </mxCell>
        <mxCell id="YFGiQ5MIki4B_HdZWA-Z-18" value="Готовые рулонные шторы" style="rounded=1;whiteSpace=wrap;html=1;" parent="1" vertex="1">
          <mxGeometry x="610" y="550" width="160" height="30" as="geometry" />
        </mxCell>
        <mxCell id="YFGiQ5MIki4B_HdZWA-Z-19" style="edgeStyle=none;rounded=0;orthogonalLoop=1;jettySize=auto;html=1;exitX=1;exitY=0.5;exitDx=0;exitDy=0;endArrow=none;endFill=0;" parent="1" source="YFGiQ5MIki4B_HdZWA-Z-22" target="YFGiQ5MIki4B_HdZWA-Z-26" edge="1">
          <mxGeometry relative="1" as="geometry" />
        </mxCell>
        <mxCell id="YFGiQ5MIki4B_HdZWA-Z-20" style="edgeStyle=none;rounded=0;orthogonalLoop=1;jettySize=auto;html=1;exitX=0.25;exitY=1;exitDx=0;exitDy=0;endArrow=classic;endFill=1;fillColor=#dae8fc;strokeColor=#6c8ebf;" parent="1" source="YFGiQ5MIki4B_HdZWA-Z-22" target="YFGiQ5MIki4B_HdZWA-Z-74" edge="1">
          <mxGeometry relative="1" as="geometry" />
        </mxCell>
        <mxCell id="YFGiQ5MIki4B_HdZWA-Z-21" style="edgeStyle=none;rounded=0;orthogonalLoop=1;jettySize=auto;html=1;exitX=0.75;exitY=1;exitDx=0;exitDy=0;endArrow=classic;endFill=1;fillColor=#d5e8d4;strokeColor=#82b366;" parent="1" source="YFGiQ5MIki4B_HdZWA-Z-22" target="YFGiQ5MIki4B_HdZWA-Z-77" edge="1">
          <mxGeometry relative="1" as="geometry" />
        </mxCell>
        <mxCell id="YFGiQ5MIki4B_HdZWA-Z-22" value="Горизонтальные Венус" style="rounded=1;whiteSpace=wrap;html=1;" parent="1" vertex="1">
          <mxGeometry x="787" y="550" width="160" height="30" as="geometry" />
        </mxCell>
        <mxCell id="YFGiQ5MIki4B_HdZWA-Z-23" style="edgeStyle=none;rounded=0;orthogonalLoop=1;jettySize=auto;html=1;exitX=1;exitY=0.5;exitDx=0;exitDy=0;entryX=0;entryY=0.5;entryDx=0;entryDy=0;endArrow=none;endFill=0;" parent="1" source="YFGiQ5MIki4B_HdZWA-Z-26" target="YFGiQ5MIki4B_HdZWA-Z-30" edge="1">
          <mxGeometry relative="1" as="geometry" />
        </mxCell>
        <mxCell id="YFGiQ5MIki4B_HdZWA-Z-24" style="edgeStyle=none;rounded=0;orthogonalLoop=1;jettySize=auto;html=1;exitX=0.25;exitY=1;exitDx=0;exitDy=0;endArrow=classic;endFill=1;fillColor=#dae8fc;strokeColor=#6c8ebf;" parent="1" source="YFGiQ5MIki4B_HdZWA-Z-26" target="YFGiQ5MIki4B_HdZWA-Z-74" edge="1">
          <mxGeometry relative="1" as="geometry" />
        </mxCell>
        <mxCell id="YFGiQ5MIki4B_HdZWA-Z-25" style="edgeStyle=none;rounded=0;orthogonalLoop=1;jettySize=auto;html=1;exitX=0.5;exitY=1;exitDx=0;exitDy=0;endArrow=classic;endFill=1;fillColor=#d5e8d4;strokeColor=#82b366;" parent="1" source="YFGiQ5MIki4B_HdZWA-Z-26" target="YFGiQ5MIki4B_HdZWA-Z-77" edge="1">
          <mxGeometry relative="1" as="geometry" />
        </mxCell>
        <mxCell id="YFGiQ5MIki4B_HdZWA-Z-97" style="edgeStyle=none;rounded=0;orthogonalLoop=1;jettySize=auto;html=1;exitX=0.25;exitY=0;exitDx=0;exitDy=0;fillColor=#e1d5e7;strokeColor=#9673a6;" parent="1" source="YFGiQ5MIki4B_HdZWA-Z-26" target="YFGiQ5MIki4B_HdZWA-Z-94" edge="1">
          <mxGeometry relative="1" as="geometry" />
        </mxCell>
        <mxCell id="YFGiQ5MIki4B_HdZWA-Z-26" value="Горизонтальные Стандарт" style="rounded=1;whiteSpace=wrap;html=1;" parent="1" vertex="1">
          <mxGeometry x="960" y="550" width="160" height="30" as="geometry" />
        </mxCell>
        <mxCell id="YFGiQ5MIki4B_HdZWA-Z-27" style="edgeStyle=none;rounded=0;orthogonalLoop=1;jettySize=auto;html=1;exitX=1;exitY=0.5;exitDx=0;exitDy=0;endArrow=none;endFill=0;" parent="1" source="YFGiQ5MIki4B_HdZWA-Z-30" target="YFGiQ5MIki4B_HdZWA-Z-34" edge="1">
          <mxGeometry relative="1" as="geometry" />
        </mxCell>
        <mxCell id="YFGiQ5MIki4B_HdZWA-Z-28" style="edgeStyle=none;rounded=0;orthogonalLoop=1;jettySize=auto;html=1;exitX=0.25;exitY=1;exitDx=0;exitDy=0;entryX=0.75;entryY=0;entryDx=0;entryDy=0;endArrow=classic;endFill=1;fillColor=#d5e8d4;strokeColor=#82b366;" parent="1" source="YFGiQ5MIki4B_HdZWA-Z-30" target="YFGiQ5MIki4B_HdZWA-Z-77" edge="1">
          <mxGeometry relative="1" as="geometry" />
        </mxCell>
        <mxCell id="YFGiQ5MIki4B_HdZWA-Z-29" style="edgeStyle=none;rounded=0;orthogonalLoop=1;jettySize=auto;html=1;exitX=0.25;exitY=0;exitDx=0;exitDy=0;fillColor=#dae8fc;strokeColor=#6c8ebf;" parent="1" source="YFGiQ5MIki4B_HdZWA-Z-30" target="YFGiQ5MIki4B_HdZWA-Z-88" edge="1">
          <mxGeometry relative="1" as="geometry" />
        </mxCell>
        <mxCell id="YFGiQ5MIki4B_HdZWA-Z-30" value="Вертикальные 89" style="rounded=1;whiteSpace=wrap;html=1;" parent="1" vertex="1">
          <mxGeometry x="1160" y="550" width="110" height="30" as="geometry" />
        </mxCell>
        <mxCell id="YFGiQ5MIki4B_HdZWA-Z-31" style="edgeStyle=none;rounded=0;orthogonalLoop=1;jettySize=auto;html=1;exitX=1;exitY=0.5;exitDx=0;exitDy=0;entryX=0;entryY=0.5;entryDx=0;entryDy=0;endArrow=none;endFill=0;" parent="1" source="YFGiQ5MIki4B_HdZWA-Z-34" target="YFGiQ5MIki4B_HdZWA-Z-37" edge="1">
          <mxGeometry relative="1" as="geometry" />
        </mxCell>
        <mxCell id="YFGiQ5MIki4B_HdZWA-Z-32" style="edgeStyle=none;rounded=0;orthogonalLoop=1;jettySize=auto;html=1;exitX=0.25;exitY=1;exitDx=0;exitDy=0;endArrow=classic;endFill=1;fillColor=#d5e8d4;strokeColor=#82b366;" parent="1" source="YFGiQ5MIki4B_HdZWA-Z-34" target="YFGiQ5MIki4B_HdZWA-Z-77" edge="1">
          <mxGeometry relative="1" as="geometry" />
        </mxCell>
        <mxCell id="YFGiQ5MIki4B_HdZWA-Z-33" style="edgeStyle=none;rounded=0;orthogonalLoop=1;jettySize=auto;html=1;exitX=0.25;exitY=0;exitDx=0;exitDy=0;entryX=0.588;entryY=1;entryDx=0;entryDy=0;entryPerimeter=0;fillColor=#dae8fc;strokeColor=#6c8ebf;" parent="1" source="YFGiQ5MIki4B_HdZWA-Z-34" target="YFGiQ5MIki4B_HdZWA-Z-88" edge="1">
          <mxGeometry relative="1" as="geometry" />
        </mxCell>
        <mxCell id="YFGiQ5MIki4B_HdZWA-Z-34" value="Вертикальные 127" style="rounded=1;whiteSpace=wrap;html=1;" parent="1" vertex="1">
          <mxGeometry x="1290" y="550" width="110" height="30" as="geometry" />
        </mxCell>
        <mxCell id="YFGiQ5MIki4B_HdZWA-Z-35" style="edgeStyle=none;rounded=0;orthogonalLoop=1;jettySize=auto;html=1;exitX=0.25;exitY=1;exitDx=0;exitDy=0;endArrow=classic;endFill=1;fillColor=#dae8fc;strokeColor=#6c8ebf;" parent="1" source="YFGiQ5MIki4B_HdZWA-Z-37" target="YFGiQ5MIki4B_HdZWA-Z-75" edge="1">
          <mxGeometry relative="1" as="geometry" />
        </mxCell>
        <mxCell id="YFGiQ5MIki4B_HdZWA-Z-36" style="edgeStyle=none;rounded=0;orthogonalLoop=1;jettySize=auto;html=1;exitX=0.25;exitY=1;exitDx=0;exitDy=0;endArrow=classic;endFill=1;fillColor=#d5e8d4;strokeColor=#82b366;" parent="1" source="YFGiQ5MIki4B_HdZWA-Z-37" target="YFGiQ5MIki4B_HdZWA-Z-77" edge="1">
          <mxGeometry relative="1" as="geometry" />
        </mxCell>
        <mxCell id="YFGiQ5MIki4B_HdZWA-Z-37" value="Москитные сетки" style="rounded=1;whiteSpace=wrap;html=1;" parent="1" vertex="1">
          <mxGeometry x="1420" y="550" width="110" height="30" as="geometry" />
        </mxCell>
        <mxCell id="YFGiQ5MIki4B_HdZWA-Z-38" style="edgeStyle=none;rounded=0;orthogonalLoop=1;jettySize=auto;html=1;exitX=1;exitY=0.5;exitDx=0;exitDy=0;entryX=0;entryY=0.5;entryDx=0;entryDy=0;endArrow=none;endFill=0;" parent="1" source="YFGiQ5MIki4B_HdZWA-Z-44" target="YFGiQ5MIki4B_HdZWA-Z-49" edge="1">
          <mxGeometry relative="1" as="geometry" />
        </mxCell>
        <mxCell id="YFGiQ5MIki4B_HdZWA-Z-39" style="edgeStyle=none;rounded=0;orthogonalLoop=1;jettySize=auto;html=1;exitX=0.5;exitY=0;exitDx=0;exitDy=0;entryX=0.423;entryY=0.984;entryDx=0;entryDy=0;entryPerimeter=0;endArrow=classic;endFill=1;fillColor=#dae8fc;strokeColor=#6c8ebf;" parent="1" source="YFGiQ5MIki4B_HdZWA-Z-44" target="YFGiQ5MIki4B_HdZWA-Z-76" edge="1">
          <mxGeometry relative="1" as="geometry" />
        </mxCell>
        <mxCell id="YFGiQ5MIki4B_HdZWA-Z-40" style="edgeStyle=none;rounded=0;orthogonalLoop=1;jettySize=auto;html=1;exitX=0.75;exitY=0;exitDx=0;exitDy=0;endArrow=classic;endFill=1;fillColor=#ffe6cc;strokeColor=#d79b00;" parent="1" source="YFGiQ5MIki4B_HdZWA-Z-44" target="YFGiQ5MIki4B_HdZWA-Z-78" edge="1">
          <mxGeometry relative="1" as="geometry" />
        </mxCell>
        <mxCell id="YFGiQ5MIki4B_HdZWA-Z-41" style="edgeStyle=orthogonalEdgeStyle;rounded=0;orthogonalLoop=1;jettySize=auto;html=1;exitX=0.75;exitY=1;exitDx=0;exitDy=0;entryX=0.75;entryY=1;entryDx=0;entryDy=0;endArrow=classic;endFill=1;" parent="1" source="YFGiQ5MIki4B_HdZWA-Z-44" target="YFGiQ5MIki4B_HdZWA-Z-73" edge="1">
          <mxGeometry relative="1" as="geometry" />
        </mxCell>
        <mxCell id="YFGiQ5MIki4B_HdZWA-Z-42" style="edgeStyle=none;rounded=0;orthogonalLoop=1;jettySize=auto;html=1;exitX=0.25;exitY=0;exitDx=0;exitDy=0;endArrow=classic;endFill=1;fillColor=#d5e8d4;strokeColor=#82b366;" parent="1" source="YFGiQ5MIki4B_HdZWA-Z-44" target="YFGiQ5MIki4B_HdZWA-Z-84" edge="1">
          <mxGeometry relative="1" as="geometry" />
        </mxCell>
        <mxCell id="YFGiQ5MIki4B_HdZWA-Z-43" style="edgeStyle=none;rounded=0;orthogonalLoop=1;jettySize=auto;html=1;exitX=0;exitY=0.5;exitDx=0;exitDy=0;endArrow=classic;endFill=1;fillColor=#fff2cc;strokeColor=#d6b656;" parent="1" source="YFGiQ5MIki4B_HdZWA-Z-44" target="YFGiQ5MIki4B_HdZWA-Z-86" edge="1">
          <mxGeometry relative="1" as="geometry" />
        </mxCell>
        <mxCell id="YFGiQ5MIki4B_HdZWA-Z-44" value="&lt;font style=&quot;font-size: 8px&quot;&gt;compact&lt;/font&gt;" style="rounded=1;whiteSpace=wrap;html=1;" parent="1" vertex="1">
          <mxGeometry x="230" y="480" width="40" height="20" as="geometry" />
        </mxCell>
        <mxCell id="YFGiQ5MIki4B_HdZWA-Z-45" style="edgeStyle=none;rounded=0;orthogonalLoop=1;jettySize=auto;html=1;exitX=1;exitY=0.5;exitDx=0;exitDy=0;entryX=0;entryY=0.5;entryDx=0;entryDy=0;endArrow=none;endFill=0;" parent="1" source="YFGiQ5MIki4B_HdZWA-Z-49" target="YFGiQ5MIki4B_HdZWA-Z-54" edge="1">
          <mxGeometry relative="1" as="geometry" />
        </mxCell>
        <mxCell id="YFGiQ5MIki4B_HdZWA-Z-46" style="edgeStyle=none;rounded=0;orthogonalLoop=1;jettySize=auto;html=1;exitX=0.25;exitY=0;exitDx=0;exitDy=0;endArrow=classic;endFill=1;fillColor=#dae8fc;strokeColor=#6c8ebf;" parent="1" source="YFGiQ5MIki4B_HdZWA-Z-49" target="YFGiQ5MIki4B_HdZWA-Z-76" edge="1">
          <mxGeometry relative="1" as="geometry" />
        </mxCell>
        <mxCell id="YFGiQ5MIki4B_HdZWA-Z-47" style="edgeStyle=none;rounded=0;orthogonalLoop=1;jettySize=auto;html=1;exitX=0.5;exitY=0;exitDx=0;exitDy=0;endArrow=classic;endFill=1;fillColor=#ffe6cc;strokeColor=#d79b00;" parent="1" source="YFGiQ5MIki4B_HdZWA-Z-49" target="YFGiQ5MIki4B_HdZWA-Z-78" edge="1">
          <mxGeometry relative="1" as="geometry" />
        </mxCell>
        <mxCell id="YFGiQ5MIki4B_HdZWA-Z-48" style="edgeStyle=none;rounded=0;orthogonalLoop=1;jettySize=auto;html=1;exitX=0.5;exitY=0;exitDx=0;exitDy=0;entryX=0.25;entryY=1;entryDx=0;entryDy=0;endArrow=classic;endFill=1;fillColor=#e1d5e7;strokeColor=#9673a6;" parent="1" source="YFGiQ5MIki4B_HdZWA-Z-49" target="YFGiQ5MIki4B_HdZWA-Z-85" edge="1">
          <mxGeometry relative="1" as="geometry" />
        </mxCell>
        <mxCell id="YFGiQ5MIki4B_HdZWA-Z-49" value="&lt;font style=&quot;font-size: 8px&quot;&gt;фалш шторы&lt;/font&gt;" style="rounded=1;whiteSpace=wrap;html=1;" parent="1" vertex="1">
          <mxGeometry x="280" y="480" width="60" height="20" as="geometry" />
        </mxCell>
        <mxCell id="YFGiQ5MIki4B_HdZWA-Z-50" style="edgeStyle=none;rounded=0;orthogonalLoop=1;jettySize=auto;html=1;exitX=1;exitY=0.5;exitDx=0;exitDy=0;entryX=0;entryY=0.5;entryDx=0;entryDy=0;endArrow=none;endFill=0;" parent="1" source="YFGiQ5MIki4B_HdZWA-Z-54" target="YFGiQ5MIki4B_HdZWA-Z-59" edge="1">
          <mxGeometry relative="1" as="geometry" />
        </mxCell>
        <mxCell id="YFGiQ5MIki4B_HdZWA-Z-51" style="edgeStyle=none;rounded=0;orthogonalLoop=1;jettySize=auto;html=1;exitX=0.5;exitY=0;exitDx=0;exitDy=0;endArrow=classic;endFill=1;fillColor=#ffe6cc;strokeColor=#d79b00;" parent="1" source="YFGiQ5MIki4B_HdZWA-Z-54" target="YFGiQ5MIki4B_HdZWA-Z-78" edge="1">
          <mxGeometry relative="1" as="geometry" />
        </mxCell>
        <mxCell id="YFGiQ5MIki4B_HdZWA-Z-52" style="edgeStyle=none;rounded=0;orthogonalLoop=1;jettySize=auto;html=1;exitX=0.25;exitY=0;exitDx=0;exitDy=0;endArrow=classic;endFill=1;fillColor=#d5e8d4;strokeColor=#82b366;" parent="1" source="YFGiQ5MIki4B_HdZWA-Z-54" target="YFGiQ5MIki4B_HdZWA-Z-84" edge="1">
          <mxGeometry relative="1" as="geometry" />
        </mxCell>
        <mxCell id="YFGiQ5MIki4B_HdZWA-Z-53" style="edgeStyle=none;rounded=0;orthogonalLoop=1;jettySize=auto;html=1;exitX=0.25;exitY=1;exitDx=0;exitDy=0;fillColor=#e1d5e7;strokeColor=#9673a6;" parent="1" source="YFGiQ5MIki4B_HdZWA-Z-54" target="YFGiQ5MIki4B_HdZWA-Z-90" edge="1">
          <mxGeometry relative="1" as="geometry" />
        </mxCell>
        <mxCell id="YFGiQ5MIki4B_HdZWA-Z-54" value="&lt;font style=&quot;font-size: 8px&quot;&gt;MINI&lt;/font&gt;" style="rounded=1;whiteSpace=wrap;html=1;" parent="1" vertex="1">
          <mxGeometry x="350" y="480" width="30" height="20" as="geometry" />
        </mxCell>
        <mxCell id="YFGiQ5MIki4B_HdZWA-Z-55" style="edgeStyle=none;rounded=0;orthogonalLoop=1;jettySize=auto;html=1;exitX=1;exitY=0.5;exitDx=0;exitDy=0;entryX=0;entryY=0.5;entryDx=0;entryDy=0;endArrow=none;endFill=0;" parent="1" source="YFGiQ5MIki4B_HdZWA-Z-59" target="YFGiQ5MIki4B_HdZWA-Z-73" edge="1">
          <mxGeometry relative="1" as="geometry" />
        </mxCell>
        <mxCell id="YFGiQ5MIki4B_HdZWA-Z-56" style="edgeStyle=none;rounded=0;orthogonalLoop=1;jettySize=auto;html=1;exitX=0.5;exitY=0;exitDx=0;exitDy=0;endArrow=classic;endFill=1;fillColor=#ffe6cc;strokeColor=#d79b00;" parent="1" source="YFGiQ5MIki4B_HdZWA-Z-59" target="YFGiQ5MIki4B_HdZWA-Z-78" edge="1">
          <mxGeometry relative="1" as="geometry" />
        </mxCell>
        <mxCell id="YFGiQ5MIki4B_HdZWA-Z-57" style="edgeStyle=none;rounded=0;orthogonalLoop=1;jettySize=auto;html=1;exitX=0.25;exitY=0;exitDx=0;exitDy=0;entryX=0.724;entryY=0.991;entryDx=0;entryDy=0;entryPerimeter=0;endArrow=classic;endFill=1;fillColor=#d5e8d4;strokeColor=#82b366;" parent="1" source="YFGiQ5MIki4B_HdZWA-Z-59" target="YFGiQ5MIki4B_HdZWA-Z-84" edge="1">
          <mxGeometry relative="1" as="geometry" />
        </mxCell>
        <mxCell id="YFGiQ5MIki4B_HdZWA-Z-58" style="edgeStyle=none;rounded=0;orthogonalLoop=1;jettySize=auto;html=1;exitX=0.5;exitY=1;exitDx=0;exitDy=0;fillColor=#e1d5e7;strokeColor=#9673a6;" parent="1" source="YFGiQ5MIki4B_HdZWA-Z-59" target="YFGiQ5MIki4B_HdZWA-Z-90" edge="1">
          <mxGeometry relative="1" as="geometry" />
        </mxCell>
        <mxCell id="YFGiQ5MIki4B_HdZWA-Z-59" value="&lt;font style=&quot;font-size: 8px&quot;&gt;STANDARTD&lt;/font&gt;" style="rounded=1;whiteSpace=wrap;html=1;" parent="1" vertex="1">
          <mxGeometry x="390" y="480" width="50" height="20" as="geometry" />
        </mxCell>
        <mxCell id="YFGiQ5MIki4B_HdZWA-Z-60" style="edgeStyle=none;rounded=0;orthogonalLoop=1;jettySize=auto;html=1;endArrow=none;endFill=0;" parent="1" source="YFGiQ5MIki4B_HdZWA-Z-65" target="YFGiQ5MIki4B_HdZWA-Z-73" edge="1">
          <mxGeometry relative="1" as="geometry" />
        </mxCell>
        <mxCell id="YFGiQ5MIki4B_HdZWA-Z-61" style="edgeStyle=none;rounded=0;orthogonalLoop=1;jettySize=auto;html=1;exitX=0.5;exitY=0;exitDx=0;exitDy=0;entryX=0.5;entryY=1;entryDx=0;entryDy=0;endArrow=classic;endFill=1;fillColor=#dae8fc;strokeColor=#6c8ebf;" parent="1" source="YFGiQ5MIki4B_HdZWA-Z-65" target="YFGiQ5MIki4B_HdZWA-Z-79" edge="1">
          <mxGeometry relative="1" as="geometry" />
        </mxCell>
        <mxCell id="YFGiQ5MIki4B_HdZWA-Z-62" style="edgeStyle=orthogonalEdgeStyle;rounded=0;orthogonalLoop=1;jettySize=auto;html=1;exitX=0.5;exitY=1;exitDx=0;exitDy=0;entryX=0.725;entryY=1.017;entryDx=0;entryDy=0;entryPerimeter=0;endArrow=classic;endFill=1;" parent="1" source="YFGiQ5MIki4B_HdZWA-Z-65" target="YFGiQ5MIki4B_HdZWA-Z-69" edge="1">
          <mxGeometry relative="1" as="geometry" />
        </mxCell>
        <mxCell id="YFGiQ5MIki4B_HdZWA-Z-63" style="edgeStyle=none;rounded=0;orthogonalLoop=1;jettySize=auto;html=1;exitX=0.25;exitY=0;exitDx=0;exitDy=0;endArrow=classic;endFill=1;fillColor=#e1d5e7;strokeColor=#9673a6;" parent="1" source="YFGiQ5MIki4B_HdZWA-Z-65" target="YFGiQ5MIki4B_HdZWA-Z-85" edge="1">
          <mxGeometry relative="1" as="geometry" />
        </mxCell>
        <mxCell id="YFGiQ5MIki4B_HdZWA-Z-64" style="edgeStyle=none;rounded=0;orthogonalLoop=1;jettySize=auto;html=1;exitX=0;exitY=1;exitDx=0;exitDy=0;fillColor=#e1d5e7;strokeColor=#9673a6;" parent="1" source="YFGiQ5MIki4B_HdZWA-Z-65" target="YFGiQ5MIki4B_HdZWA-Z-90" edge="1">
          <mxGeometry relative="1" as="geometry" />
        </mxCell>
        <mxCell id="YFGiQ5MIki4B_HdZWA-Z-65" value="&lt;font style=&quot;font-size: 8px&quot;&gt;UNI Плоскю Напралю&lt;/font&gt;" style="rounded=1;whiteSpace=wrap;html=1;" parent="1" vertex="1">
          <mxGeometry x="500" y="480" width="90" height="20" as="geometry" />
        </mxCell>
        <mxCell id="YFGiQ5MIki4B_HdZWA-Z-66" style="edgeStyle=none;rounded=0;orthogonalLoop=1;jettySize=auto;html=1;entryX=1;entryY=0.5;entryDx=0;entryDy=0;endArrow=none;endFill=0;" parent="1" source="YFGiQ5MIki4B_HdZWA-Z-69" target="YFGiQ5MIki4B_HdZWA-Z-65" edge="1">
          <mxGeometry relative="1" as="geometry" />
        </mxCell>
        <mxCell id="YFGiQ5MIki4B_HdZWA-Z-67" style="edgeStyle=none;rounded=0;orthogonalLoop=1;jettySize=auto;html=1;exitX=0.25;exitY=0;exitDx=0;exitDy=0;entryX=0.75;entryY=1;entryDx=0;entryDy=0;endArrow=classic;endFill=1;fillColor=#e1d5e7;strokeColor=#9673a6;" parent="1" source="YFGiQ5MIki4B_HdZWA-Z-69" target="YFGiQ5MIki4B_HdZWA-Z-85" edge="1">
          <mxGeometry relative="1" as="geometry" />
        </mxCell>
        <mxCell id="YFGiQ5MIki4B_HdZWA-Z-68" style="edgeStyle=none;rounded=0;orthogonalLoop=1;jettySize=auto;html=1;exitX=0.25;exitY=1;exitDx=0;exitDy=0;fillColor=#e1d5e7;strokeColor=#9673a6;" parent="1" source="YFGiQ5MIki4B_HdZWA-Z-69" target="YFGiQ5MIki4B_HdZWA-Z-90" edge="1">
          <mxGeometry relative="1" as="geometry" />
        </mxCell>
        <mxCell id="YFGiQ5MIki4B_HdZWA-Z-69" value="&lt;font style=&quot;font-size: 8px&quot;&gt;UNI П-обрю Направл.&lt;/font&gt;" style="rounded=1;whiteSpace=wrap;html=1;" parent="1" vertex="1">
          <mxGeometry x="600" y="480" width="100" height="20" as="geometry" />
        </mxCell>
        <mxCell id="YFGiQ5MIki4B_HdZWA-Z-70" style="edgeStyle=none;rounded=0;orthogonalLoop=1;jettySize=auto;html=1;exitX=0.5;exitY=1;exitDx=0;exitDy=0;entryX=0.501;entryY=0.667;entryDx=0;entryDy=0;entryPerimeter=0;endArrow=none;endFill=0;" parent="1" source="YFGiQ5MIki4B_HdZWA-Z-65" target="YFGiQ5MIki4B_HdZWA-Z-65" edge="1">
          <mxGeometry relative="1" as="geometry" />
        </mxCell>
        <mxCell id="YFGiQ5MIki4B_HdZWA-Z-71" style="edgeStyle=none;rounded=0;orthogonalLoop=1;jettySize=auto;html=1;exitX=0.25;exitY=0;exitDx=0;exitDy=0;endArrow=classic;endFill=1;fillColor=#ffe6cc;strokeColor=#d79b00;" parent="1" source="YFGiQ5MIki4B_HdZWA-Z-73" target="YFGiQ5MIki4B_HdZWA-Z-78" edge="1">
          <mxGeometry relative="1" as="geometry" />
        </mxCell>
        <mxCell id="YFGiQ5MIki4B_HdZWA-Z-72" style="edgeStyle=none;rounded=0;orthogonalLoop=1;jettySize=auto;html=1;exitX=0.25;exitY=0;exitDx=0;exitDy=0;entryX=0.945;entryY=1.027;entryDx=0;entryDy=0;entryPerimeter=0;endArrow=classic;endFill=1;fillColor=#d5e8d4;strokeColor=#82b366;" parent="1" source="YFGiQ5MIki4B_HdZWA-Z-73" target="YFGiQ5MIki4B_HdZWA-Z-84" edge="1">
          <mxGeometry relative="1" as="geometry" />
        </mxCell>
        <mxCell id="YFGiQ5MIki4B_HdZWA-Z-73" value="&lt;font style=&quot;font-size: 8px&quot;&gt;MAXIMUS&lt;/font&gt;" style="rounded=1;whiteSpace=wrap;html=1;" parent="1" vertex="1">
          <mxGeometry x="450" y="480" width="40" height="20" as="geometry" />
        </mxCell>
        <mxCell id="YFGiQ5MIki4B_HdZWA-Z-74" value="&lt;div style=&quot;text-align: left&quot;&gt;&lt;span style=&quot;font-size: 8px&quot;&gt;1. Не считать площадь меньше 0.7&amp;nbsp;&lt;/span&gt;&lt;/div&gt;&lt;div style=&quot;text-align: left&quot;&gt;&lt;span style=&quot;font-size: 8px&quot;&gt;2. Добавить тип управлениия как у вертикальных , типо: Т1 , т2 итд&lt;/span&gt;&lt;/div&gt;&lt;div style=&quot;text-align: left&quot;&gt;&lt;span style=&quot;font-size: 8px&quot;&gt;&lt;br&gt;&lt;/span&gt;&lt;/div&gt;" style="whiteSpace=wrap;html=1;fillColor=#dae8fc;strokeColor=#6c8ebf;" parent="1" vertex="1">
          <mxGeometry x="530" y="760" width="140" height="60" as="geometry" />
        </mxCell>
        <mxCell id="YFGiQ5MIki4B_HdZWA-Z-75" value="&lt;span style=&quot;font-size: 8px ; line-height: 80%&quot;&gt;Мин площаль 1м&lt;/span&gt;" style="whiteSpace=wrap;html=1;fillColor=#dae8fc;strokeColor=#6c8ebf;" parent="1" vertex="1">
          <mxGeometry x="1410" y="465" width="70" height="30" as="geometry" />
        </mxCell>
        <mxCell id="YFGiQ5MIki4B_HdZWA-Z-76" value="&lt;span style=&quot;font-size: 8px&quot;&gt;1.Разделить эти две системы. У них просто одинаковые расценки.&lt;/span&gt;" style="whiteSpace=wrap;html=1;align=left;fillColor=#dae8fc;strokeColor=#6c8ebf;" parent="1" vertex="1">
          <mxGeometry x="100" y="340" width="120" height="60" as="geometry" />
        </mxCell>
        <mxCell id="YFGiQ5MIki4B_HdZWA-Z-77" value="&lt;div style=&quot;text-align: left&quot;&gt;&lt;span style=&quot;font-size: 8px&quot;&gt;1. Сделать Select наценка от 15% до 100% все вкладки кратны 5%&lt;/span&gt;&lt;/div&gt;&lt;div style=&quot;text-align: left&quot;&gt;&lt;span style=&quot;font-size: 8px&quot;&gt;2. сделать конвертер валют с доллара на гривну . Клиент вводит курс долара в гривнах ему выхает цену. Просто цена умножается на то что он ввел&lt;/span&gt;&lt;/div&gt;" style="whiteSpace=wrap;html=1;fillColor=#d5e8d4;strokeColor=#82b366;" parent="1" vertex="1">
          <mxGeometry x="920" y="760" width="190" height="70" as="geometry" />
        </mxCell>
        <mxCell id="YFGiQ5MIki4B_HdZWA-Z-78" value="&lt;font style=&quot;line-height: 60% ; font-size: 8px&quot;&gt;1. Добавить выбор Размер: СТД или РГ. по умлчани. СТД ,если СТД то в бланк попадать не будет&lt;br&gt;&lt;br&gt;&lt;/font&gt;" style="whiteSpace=wrap;html=1;fillColor=#ffe6cc;strokeColor=#d79b00;align=left;" parent="1" vertex="1">
          <mxGeometry x="115" y="190" width="150" height="70" as="geometry" />
        </mxCell>
        <mxCell id="YFGiQ5MIki4B_HdZWA-Z-79" value="&lt;font style=&quot;line-height: 60% ; font-size: 8px&quot;&gt;1.Добавить вторую ширину (input) &quot;Ширина стекла&quot;. Эта ширина не на что не влияет, а просто добавляется в бланк к основной ширине через дробь. Текст основной ширины изменить на &quot;Ширина ребра&quot;&lt;br&gt;2. Дабавить radio или select Доп скот с пунктами:Без скотча(по умолчанию) и Доп. скотч.&lt;br&gt;Если выбран пункт Доп. скотч то за каждый метр высоты к цене будет добавляться 0.8 дол&lt;br&gt;&lt;br&gt;&lt;/font&gt;" style="whiteSpace=wrap;html=1;fillColor=#dae8fc;strokeColor=#6c8ebf;align=left;" parent="1" vertex="1">
          <mxGeometry x="490" y="300" width="210" height="140" as="geometry" />
        </mxCell>
        <mxCell id="YFGiQ5MIki4B_HdZWA-Z-80" value="&lt;font style=&quot;font-size: 8px ; line-height: 80%&quot;&gt;1.В Бел / Кор меняется цена. Если выбран коричневый то к цене добавляется +1 , +2 , +3 , +4&lt;br&gt;&lt;br&gt;&lt;/font&gt;" style="whiteSpace=wrap;html=1;fillColor=#f8cecc;strokeColor=#b85450;align=left;" parent="1" vertex="1">
          <mxGeometry x="370" y="620" width="140" height="60" as="geometry" />
        </mxCell>
        <mxCell id="YFGiQ5MIki4B_HdZWA-Z-81" value="&lt;font style=&quot;font-size: 9px ; background-color: rgb(13 , 13 , 13)&quot; color=&quot;#ffffff&quot;&gt;Шторы открытого типа&lt;/font&gt;" style="text;html=1;align=center;verticalAlign=middle;resizable=0;points=[];autosize=1;" parent="1" vertex="1">
          <mxGeometry x="305" y="520" width="110" height="20" as="geometry" />
        </mxCell>
        <mxCell id="YFGiQ5MIki4B_HdZWA-Z-82" value="&lt;font style=&quot;background-color: rgb(15 , 15 , 15) ; font-size: 9px&quot; color=&quot;#f7f7f7&quot;&gt;Шторы закрытого типа&lt;/font&gt;" style="text;html=1;align=center;verticalAlign=middle;resizable=0;points=[];autosize=1;" parent="1" vertex="1">
          <mxGeometry x="560" y="520" width="110" height="20" as="geometry" />
        </mxCell>
        <mxCell id="YFGiQ5MIki4B_HdZWA-Z-83" style="edgeStyle=none;rounded=0;orthogonalLoop=1;jettySize=auto;html=1;exitX=1;exitY=0.5;exitDx=0;exitDy=0;entryX=0;entryY=0.5;entryDx=0;entryDy=0;endArrow=classic;endFill=1;startArrow=classic;startFill=1;" parent="1" source="YFGiQ5MIki4B_HdZWA-Z-84" target="YFGiQ5MIki4B_HdZWA-Z-85" edge="1">
          <mxGeometry relative="1" as="geometry" />
        </mxCell>
        <mxCell id="YFGiQ5MIki4B_HdZWA-Z-84" value="&lt;font style=&quot;line-height: 60% ; font-size: 8px&quot;&gt;1. Выбор системы фиксации, Добавить radio &quot;без фиксации&quot;, по умолчанию идет это radio. За магнидную фиксацию досчитывается 0.9 дол за коплект.(прибавляется к цене)&lt;br&gt;&lt;br&gt;Цены на Направлющую струну:&lt;br&gt;РУЛ ШТОРЫ: Compact, Mini Standard = 0.9 дол, Maximus = 2.5 дол&lt;br&gt;ДЕНЬ НОЧЬ: Compact, Mini Standard = 1.2 дол, Maximus = 3.0 дол&lt;br&gt;&lt;br&gt;&lt;br&gt;&lt;/font&gt;" style="whiteSpace=wrap;html=1;fillColor=#d5e8d4;strokeColor=#82b366;align=left;" parent="1" vertex="1">
          <mxGeometry x="140" y="40" width="270" height="120" as="geometry" />
        </mxCell>
        <mxCell id="YFGiQ5MIki4B_HdZWA-Z-85" value="&lt;font style=&quot;line-height: 60% ; font-size: 8px&quot;&gt;1. При выборе системы фиксации можно выбрать только &quot;Без фиксации&quot;.&lt;br&gt;Возможно даже полностью убрать выбор системы фиксации.&lt;br&gt;&lt;/font&gt;" style="whiteSpace=wrap;html=1;fillColor=#e1d5e7;strokeColor=#9673a6;align=left;" parent="1" vertex="1">
          <mxGeometry x="490" y="65" width="150" height="70" as="geometry" />
        </mxCell>
        <mxCell id="YFGiQ5MIki4B_HdZWA-Z-86" value="&lt;span style=&quot;font-size: 8px&quot;&gt;1. Во владве ДЕНЬ НОЧЬ&amp;nbsp; поменять название на EcoCompact&lt;/span&gt;" style="whiteSpace=wrap;html=1;align=left;fillColor=#fff2cc;strokeColor=#d6b656;" parent="1" vertex="1">
          <mxGeometry x="55" y="450" width="120" height="60" as="geometry" />
        </mxCell>
        <mxCell id="YFGiQ5MIki4B_HdZWA-Z-87" value="&lt;font style=&quot;font-size: 6px&quot;&gt;система фиксации&lt;/font&gt;" style="text;html=1;align=center;verticalAlign=middle;resizable=0;points=[];autosize=1;" parent="1" vertex="1">
          <mxGeometry x="415" y="80" width="70" height="20" as="geometry" />
        </mxCell>
        <mxCell id="YFGiQ5MIki4B_HdZWA-Z-88" value="&lt;span style=&quot;font-size: 8px&quot;&gt;0&lt;/span&gt;&lt;span style=&quot;font-size: 8px&quot;&gt;. Минимальная ширина 1м, мин высота 1.5м&lt;/span&gt;&lt;span style=&quot;font-size: 8px&quot;&gt;&lt;br&gt;1. В бланке первым должно идти название а после номер&lt;br&gt;2. Поменять вкладки местами,&lt;br&gt;3. В блан в колонку Система&amp;nbsp; и Цвет пред названием должно попадать&amp;nbsp;&lt;/span&gt;&lt;span style=&quot;font-size: 8px&quot;&gt;Верт 127 или&amp;nbsp;&lt;/span&gt;&lt;span style=&quot;font-size: 8px&quot;&gt;&lt;br&gt;&amp;nbsp;Верт 89&lt;br&gt;4. добавить select Крепление с пунктами : Потолочные, стеновые и стеновые с удленителем .&lt;br&gt;Если выбран пункт Потолочные то ничего не досчитывается только попадает в бланк.&lt;br&gt;Если выбран пункт Стеновые то&amp;nbsp; до ширины 1.7м досчитываеются 2 крепления по 0.3 , От 1.7м до 2.5м добавляются три крепления по 0.3 дол. Если больше 2.5 м то 4 крепления досчитываются к цене и попадают в бланк.&lt;br&gt;Если выбран пункт Стеновые с удленителем то делается все тоже самое что и в пункте Стеновые только вместо 0.3 дол за помплект 0.6дол&lt;br&gt;&lt;/span&gt;" style="whiteSpace=wrap;html=1;fillColor=#dae8fc;strokeColor=#6c8ebf;align=left;" parent="1" vertex="1">
          <mxGeometry x="1120" y="240" width="300" height="210" as="geometry" />
        </mxCell>
        <mxCell id="YFGiQ5MIki4B_HdZWA-Z-89" value="&lt;font style=&quot;font-size: 8px ; line-height: 80%&quot;&gt;1. Дабавить radio или select Груз цепи с пунктами Без цепи(по умолчманию) и груз цепи .&lt;br&gt;Груз цепи стоит 0.2 дол / штука. Добавляется ко всем кроме &quot;Фалш шторы&quot;&lt;br&gt;2.&amp;nbsp; Дабавить radio или select фиксатор цепи(фикс цепи) с пунктами Без цепи(по умолчманию) и фикс. цепи&amp;nbsp; .&lt;br&gt;Фикс. цепи стоит 0.2 дол / штука. Добавляется ко всем кроме &quot;Фалш шторы&quot;, standard и maximus &lt;br&gt;3. но К колонками&amp;nbsp;standard и maximus добавляется фиксатор цепи униваерсальный (фикс цепи универс) стоимость 0.2 дол . тот же принцып что и во втором пункте.&lt;br&gt;&lt;br&gt;&lt;/font&gt;" style="whiteSpace=wrap;html=1;fillColor=#d5e8d4;strokeColor=#82b366;align=left;" parent="1" vertex="1">
          <mxGeometry x="650" y="110" width="280" height="170" as="geometry" />
        </mxCell>
        <mxCell id="YFGiQ5MIki4B_HdZWA-Z-90" value="&lt;font style=&quot;line-height: 60% ; font-size: 8px&quot;&gt;РАСЦЕНКИ В ЭТОМ ПУНКТЕ НЕ ТОЧНЫЕ И ТАКЖЕ КЛИЕНТ НЕ ПОЛНОСТЬЮ УВЕРЕН НУЖНА ЭТА ШТУКА ИЛИ НЕТ. ТАК ЖЕ У СИСТЕМЫ STANDARD БУДУТ ДРУГИЕ ЦЕНЫ&lt;br&gt;1. Добавить select или radio Способ управления: Цепь(по умолчанию) и Мотор .&lt;br&gt;Если выбран Цепь то ничего не попадает в бланк и цена не меняется .&amp;nbsp;&lt;br&gt;Если выбран Мотор то в бланк добавляется Мот. К цене за мотор добавляется 85дол. Так же при выборе Мотор появляются еще три варианта выбора пультов: 1 канал 24дол, 2 канала 26 дол и 5 каналов 30дол&amp;nbsp;&lt;br&gt;&lt;br&gt;&lt;br&gt;&lt;/font&gt;" style="whiteSpace=wrap;html=1;fillColor=#e1d5e7;strokeColor=#9673a6;align=left;" parent="1" vertex="1">
          <mxGeometry x="30" y="540" width="265" height="180" as="geometry" />
        </mxCell>
        <mxCell id="YFGiQ5MIki4B_HdZWA-Z-91" value="&lt;font color=&quot;#ffffff&quot;&gt;Черным цветом выделять пункты которые уже готов&lt;/font&gt;" style="whiteSpace=wrap;html=1;fillColor=#141414;" parent="1" vertex="1">
          <mxGeometry x="1200" y="60" width="310" height="60" as="geometry" />
        </mxCell>
        <mxCell id="YFGiQ5MIki4B_HdZWA-Z-94" value="&lt;font style=&quot;line-height: 60%&quot;&gt;&lt;span style=&quot;font-size: 8px&quot;&gt;&lt;br&gt;&lt;/span&gt;&lt;div&gt;&lt;span style=&quot;font-size: 8px&quot;&gt;1. Добавить выбор пластиковых фиксаторов, Пластиковые фиксаторы: Без фиксаторов или Пластиковые фикстары. 0.3 дол за один комплект. Добавление к названию в бланке Фикс&lt;/span&gt;&lt;/div&gt;&lt;div&gt;&lt;span style=&quot;font-size: 8px&quot;&gt;&lt;br&gt;&lt;/span&gt;&lt;/div&gt;&lt;div&gt;&lt;span style=&quot;font-size: 8px&quot;&gt;2.&lt;/span&gt;&lt;/div&gt;&lt;div&gt;&lt;span style=&quot;font-size: 8px&quot;&gt;&lt;span&gt;возможность добавления направляющей струны. В бланк должно добавляться: Струна.&lt;/span&gt;&lt;br&gt;&lt;/span&gt;&lt;/div&gt;&lt;/font&gt;&lt;div&gt;&lt;span style=&quot;font-size: 8px&quot;&gt;Только она идет не за комплект а добавляет к стоимости квадратного метра 2.5$&lt;/span&gt;&lt;/div&gt;&lt;div&gt;&lt;span style=&quot;font-size: 8px&quot;&gt;Тоесть к примеру белые горизонтальные жалюзи стоят 5$ то если со струной уже 7.5$&lt;/span&gt;&lt;/div&gt;" style="whiteSpace=wrap;html=1;fillColor=#e1d5e7;strokeColor=#9673a6;align=left;" parent="1" vertex="1">
          <mxGeometry x="910" y="350" width="190" height="140" as="geometry" />
        </mxCell>
        <mxCell id="YFGiQ5MIki4B_HdZWA-Z-132" style="edgeStyle=none;rounded=0;orthogonalLoop=1;jettySize=auto;html=1;exitX=0;exitY=1;exitDx=0;exitDy=0;entryX=0.25;entryY=0;entryDx=0;entryDy=0;fillColor=#d5e8d4;strokeColor=#82b366;" parent="1" source="YFGiQ5MIki4B_HdZWA-Z-101" target="YFGiQ5MIki4B_HdZWA-Z-131" edge="1">
          <mxGeometry relative="1" as="geometry" />
        </mxCell>
        <mxCell id="9F95oLKKVyq8y8i5-dEC-25" style="edgeStyle=none;rounded=0;orthogonalLoop=1;jettySize=auto;html=1;exitX=0.5;exitY=1;exitDx=0;exitDy=0;fillColor=#dae8fc;strokeColor=#6c8ebf;" edge="1" parent="1" source="YFGiQ5MIki4B_HdZWA-Z-101" target="YFGiQ5MIki4B_HdZWA-Z-135">
          <mxGeometry relative="1" as="geometry" />
        </mxCell>
        <mxCell id="YFGiQ5MIki4B_HdZWA-Z-101" value="рулонные шторы" style="rounded=1;whiteSpace=wrap;html=1;" parent="1" vertex="1">
          <mxGeometry x="385" y="1040" width="120" height="30" as="geometry" />
        </mxCell>
        <mxCell id="YFGiQ5MIki4B_HdZWA-Z-133" style="edgeStyle=none;rounded=0;orthogonalLoop=1;jettySize=auto;html=1;exitX=0.25;exitY=1;exitDx=0;exitDy=0;fillColor=#d5e8d4;strokeColor=#82b366;" parent="1" source="YFGiQ5MIki4B_HdZWA-Z-102" target="YFGiQ5MIki4B_HdZWA-Z-131" edge="1">
          <mxGeometry relative="1" as="geometry" />
        </mxCell>
        <mxCell id="YFGiQ5MIki4B_HdZWA-Z-137" style="edgeStyle=none;rounded=0;orthogonalLoop=1;jettySize=auto;html=1;exitX=0.25;exitY=1;exitDx=0;exitDy=0;fillColor=#dae8fc;strokeColor=#6c8ebf;" parent="1" source="YFGiQ5MIki4B_HdZWA-Z-102" target="YFGiQ5MIki4B_HdZWA-Z-135" edge="1">
          <mxGeometry relative="1" as="geometry" />
        </mxCell>
        <mxCell id="YFGiQ5MIki4B_HdZWA-Z-102" value="День ночь" style="rounded=1;whiteSpace=wrap;html=1;" parent="1" vertex="1">
          <mxGeometry x="550" y="1040" width="70" height="30" as="geometry" />
        </mxCell>
        <mxCell id="YFGiQ5MIki4B_HdZWA-Z-134" style="edgeStyle=none;rounded=0;orthogonalLoop=1;jettySize=auto;html=1;exitX=0.25;exitY=1;exitDx=0;exitDy=0;entryX=1;entryY=0.5;entryDx=0;entryDy=0;fillColor=#d5e8d4;strokeColor=#82b366;" parent="1" source="YFGiQ5MIki4B_HdZWA-Z-103" target="YFGiQ5MIki4B_HdZWA-Z-131" edge="1">
          <mxGeometry relative="1" as="geometry" />
        </mxCell>
        <mxCell id="YFGiQ5MIki4B_HdZWA-Z-103" value="Готовые рулонные шторы" style="rounded=1;whiteSpace=wrap;html=1;" parent="1" vertex="1">
          <mxGeometry x="705" y="1040" width="160" height="30" as="geometry" />
        </mxCell>
        <mxCell id="YFGiQ5MIki4B_HdZWA-Z-139" style="edgeStyle=none;rounded=0;orthogonalLoop=1;jettySize=auto;html=1;exitX=0;exitY=0.25;exitDx=0;exitDy=0;fillColor=#fff2cc;strokeColor=#d6b656;" parent="1" source="YFGiQ5MIki4B_HdZWA-Z-122" target="YFGiQ5MIki4B_HdZWA-Z-138" edge="1">
          <mxGeometry relative="1" as="geometry" />
        </mxCell>
        <mxCell id="YFGiQ5MIki4B_HdZWA-Z-141" style="edgeStyle=none;rounded=0;orthogonalLoop=1;jettySize=auto;html=1;exitX=0.5;exitY=0;exitDx=0;exitDy=0;entryX=0.629;entryY=1.002;entryDx=0;entryDy=0;entryPerimeter=0;fillColor=#dae8fc;strokeColor=#6c8ebf;" parent="1" source="YFGiQ5MIki4B_HdZWA-Z-122" target="YFGiQ5MIki4B_HdZWA-Z-140" edge="1">
          <mxGeometry relative="1" as="geometry" />
        </mxCell>
        <mxCell id="YFGiQ5MIki4B_HdZWA-Z-144" style="edgeStyle=none;rounded=0;orthogonalLoop=1;jettySize=auto;html=1;exitX=0.75;exitY=1;exitDx=0;exitDy=0;fillColor=#ffe6cc;strokeColor=#d79b00;" parent="1" source="YFGiQ5MIki4B_HdZWA-Z-122" target="YFGiQ5MIki4B_HdZWA-Z-143" edge="1">
          <mxGeometry relative="1" as="geometry" />
        </mxCell>
        <mxCell id="YFGiQ5MIki4B_HdZWA-Z-150" style="edgeStyle=none;rounded=0;orthogonalLoop=1;jettySize=auto;html=1;exitX=1;exitY=0.5;exitDx=0;exitDy=0;entryX=0;entryY=0.5;entryDx=0;entryDy=0;endArrow=none;endFill=0;" parent="1" source="YFGiQ5MIki4B_HdZWA-Z-122" target="YFGiQ5MIki4B_HdZWA-Z-123" edge="1">
          <mxGeometry relative="1" as="geometry" />
        </mxCell>
        <mxCell id="YFGiQ5MIki4B_HdZWA-Z-156" style="edgeStyle=orthogonalEdgeStyle;rounded=0;orthogonalLoop=1;jettySize=auto;html=1;exitX=0.5;exitY=0;exitDx=0;exitDy=0;entryX=0.75;entryY=0;entryDx=0;entryDy=0;endArrow=none;endFill=0;" parent="1" source="YFGiQ5MIki4B_HdZWA-Z-122" target="YFGiQ5MIki4B_HdZWA-Z-126" edge="1">
          <mxGeometry relative="1" as="geometry" />
        </mxCell>
        <mxCell id="YFGiQ5MIki4B_HdZWA-Z-164" style="edgeStyle=none;rounded=0;orthogonalLoop=1;jettySize=auto;html=1;exitX=1;exitY=1;exitDx=0;exitDy=0;entryX=0;entryY=0;entryDx=0;entryDy=0;endArrow=classic;endFill=1;fillColor=#d5e8d4;strokeColor=#82b366;" parent="1" source="YFGiQ5MIki4B_HdZWA-Z-122" target="YFGiQ5MIki4B_HdZWA-Z-162" edge="1">
          <mxGeometry relative="1" as="geometry" />
        </mxCell>
        <mxCell id="YFGiQ5MIki4B_HdZWA-Z-122" value="&lt;font style=&quot;font-size: 8px&quot;&gt;compact&lt;/font&gt;" style="rounded=1;whiteSpace=wrap;html=1;" parent="1" vertex="1">
          <mxGeometry x="210" y="1120" width="40" height="20" as="geometry" />
        </mxCell>
        <mxCell id="YFGiQ5MIki4B_HdZWA-Z-142" style="edgeStyle=none;rounded=0;orthogonalLoop=1;jettySize=auto;html=1;exitX=0.25;exitY=0;exitDx=0;exitDy=0;fillColor=#dae8fc;strokeColor=#6c8ebf;" parent="1" source="YFGiQ5MIki4B_HdZWA-Z-123" target="YFGiQ5MIki4B_HdZWA-Z-140" edge="1">
          <mxGeometry relative="1" as="geometry" />
        </mxCell>
        <mxCell id="YFGiQ5MIki4B_HdZWA-Z-145" style="edgeStyle=none;rounded=0;orthogonalLoop=1;jettySize=auto;html=1;exitX=0.5;exitY=1;exitDx=0;exitDy=0;fillColor=#ffe6cc;strokeColor=#d79b00;" parent="1" source="YFGiQ5MIki4B_HdZWA-Z-123" target="YFGiQ5MIki4B_HdZWA-Z-143" edge="1">
          <mxGeometry relative="1" as="geometry" />
        </mxCell>
        <mxCell id="YFGiQ5MIki4B_HdZWA-Z-151" style="edgeStyle=none;rounded=0;orthogonalLoop=1;jettySize=auto;html=1;exitX=1;exitY=0.5;exitDx=0;exitDy=0;entryX=0;entryY=0.5;entryDx=0;entryDy=0;endArrow=none;endFill=0;" parent="1" source="YFGiQ5MIki4B_HdZWA-Z-123" target="YFGiQ5MIki4B_HdZWA-Z-124" edge="1">
          <mxGeometry relative="1" as="geometry" />
        </mxCell>
        <mxCell id="YFGiQ5MIki4B_HdZWA-Z-173" style="edgeStyle=none;rounded=0;orthogonalLoop=1;jettySize=auto;html=1;exitX=0.75;exitY=1;exitDx=0;exitDy=0;startArrow=none;startFill=0;endArrow=classicThin;endFill=1;fillColor=#e1d5e7;strokeColor=#9673a6;" parent="1" source="YFGiQ5MIki4B_HdZWA-Z-123" target="YFGiQ5MIki4B_HdZWA-Z-168" edge="1">
          <mxGeometry relative="1" as="geometry" />
        </mxCell>
        <mxCell id="YFGiQ5MIki4B_HdZWA-Z-123" value="&lt;font style=&quot;font-size: 8px&quot;&gt;фалш шторы&lt;/font&gt;" style="rounded=1;whiteSpace=wrap;html=1;" parent="1" vertex="1">
          <mxGeometry x="280" y="1120" width="60" height="20" as="geometry" />
        </mxCell>
        <mxCell id="YFGiQ5MIki4B_HdZWA-Z-146" style="edgeStyle=none;rounded=0;orthogonalLoop=1;jettySize=auto;html=1;exitX=0.5;exitY=1;exitDx=0;exitDy=0;fillColor=#ffe6cc;strokeColor=#d79b00;" parent="1" source="YFGiQ5MIki4B_HdZWA-Z-124" target="YFGiQ5MIki4B_HdZWA-Z-143" edge="1">
          <mxGeometry relative="1" as="geometry" />
        </mxCell>
        <mxCell id="YFGiQ5MIki4B_HdZWA-Z-147" style="edgeStyle=none;rounded=0;orthogonalLoop=1;jettySize=auto;html=1;exitX=0.75;exitY=1;exitDx=0;exitDy=0;entryX=0.436;entryY=-0.056;entryDx=0;entryDy=0;entryPerimeter=0;fillColor=#ffe6cc;strokeColor=#d79b00;" parent="1" source="YFGiQ5MIki4B_HdZWA-Z-125" target="YFGiQ5MIki4B_HdZWA-Z-143" edge="1">
          <mxGeometry relative="1" as="geometry" />
        </mxCell>
        <mxCell id="YFGiQ5MIki4B_HdZWA-Z-153" style="edgeStyle=none;rounded=0;orthogonalLoop=1;jettySize=auto;html=1;exitX=1;exitY=0.5;exitDx=0;exitDy=0;entryX=0;entryY=0.5;entryDx=0;entryDy=0;endArrow=none;endFill=0;" parent="1" source="YFGiQ5MIki4B_HdZWA-Z-125" target="YFGiQ5MIki4B_HdZWA-Z-126" edge="1">
          <mxGeometry relative="1" as="geometry" />
        </mxCell>
        <mxCell id="YFGiQ5MIki4B_HdZWA-Z-166" style="edgeStyle=none;rounded=0;orthogonalLoop=1;jettySize=auto;html=1;exitX=0.75;exitY=1;exitDx=0;exitDy=0;endArrow=classic;endFill=1;fillColor=#d5e8d4;strokeColor=#82b366;" parent="1" source="YFGiQ5MIki4B_HdZWA-Z-125" target="YFGiQ5MIki4B_HdZWA-Z-162" edge="1">
          <mxGeometry relative="1" as="geometry" />
        </mxCell>
        <mxCell id="YFGiQ5MIki4B_HdZWA-Z-125" value="&lt;font style=&quot;font-size: 8px&quot;&gt;STANDARTD&lt;/font&gt;" style="rounded=1;whiteSpace=wrap;html=1;" parent="1" vertex="1">
          <mxGeometry x="420" y="1120" width="50" height="20" as="geometry" />
        </mxCell>
        <mxCell id="YFGiQ5MIki4B_HdZWA-Z-148" style="edgeStyle=none;rounded=0;orthogonalLoop=1;jettySize=auto;html=1;exitX=0.75;exitY=1;exitDx=0;exitDy=0;fillColor=#ffe6cc;strokeColor=#d79b00;" parent="1" source="YFGiQ5MIki4B_HdZWA-Z-126" target="YFGiQ5MIki4B_HdZWA-Z-143" edge="1">
          <mxGeometry relative="1" as="geometry" />
        </mxCell>
        <mxCell id="YFGiQ5MIki4B_HdZWA-Z-154" style="edgeStyle=none;rounded=0;orthogonalLoop=1;jettySize=auto;html=1;exitX=1;exitY=0.5;exitDx=0;exitDy=0;entryX=0;entryY=0.5;entryDx=0;entryDy=0;endArrow=none;endFill=0;" parent="1" source="YFGiQ5MIki4B_HdZWA-Z-126" target="YFGiQ5MIki4B_HdZWA-Z-127" edge="1">
          <mxGeometry relative="1" as="geometry" />
        </mxCell>
        <mxCell id="YFGiQ5MIki4B_HdZWA-Z-167" style="edgeStyle=none;rounded=0;orthogonalLoop=1;jettySize=auto;html=1;exitX=0.75;exitY=1;exitDx=0;exitDy=0;endArrow=classic;endFill=1;fillColor=#d5e8d4;strokeColor=#82b366;" parent="1" source="YFGiQ5MIki4B_HdZWA-Z-126" target="YFGiQ5MIki4B_HdZWA-Z-162" edge="1">
          <mxGeometry relative="1" as="geometry" />
        </mxCell>
        <mxCell id="YFGiQ5MIki4B_HdZWA-Z-126" value="&lt;font style=&quot;font-size: 8px&quot;&gt;MAXIMUS&lt;/font&gt;" style="rounded=1;whiteSpace=wrap;html=1;" parent="1" vertex="1">
          <mxGeometry x="500" y="1120" width="40" height="20" as="geometry" />
        </mxCell>
        <mxCell id="YFGiQ5MIki4B_HdZWA-Z-155" style="edgeStyle=orthogonalEdgeStyle;rounded=0;orthogonalLoop=1;jettySize=auto;html=1;exitX=1;exitY=0.5;exitDx=0;exitDy=0;entryX=0;entryY=0.5;entryDx=0;entryDy=0;endArrow=none;endFill=0;" parent="1" source="YFGiQ5MIki4B_HdZWA-Z-127" target="YFGiQ5MIki4B_HdZWA-Z-128" edge="1">
          <mxGeometry relative="1" as="geometry" />
        </mxCell>
        <mxCell id="YFGiQ5MIki4B_HdZWA-Z-157" style="edgeStyle=orthogonalEdgeStyle;rounded=0;orthogonalLoop=1;jettySize=auto;html=1;exitX=0.5;exitY=0;exitDx=0;exitDy=0;entryX=0.5;entryY=0;entryDx=0;entryDy=0;endArrow=none;endFill=0;" parent="1" source="YFGiQ5MIki4B_HdZWA-Z-127" target="YFGiQ5MIki4B_HdZWA-Z-128" edge="1">
          <mxGeometry relative="1" as="geometry" />
        </mxCell>
        <mxCell id="YFGiQ5MIki4B_HdZWA-Z-174" style="edgeStyle=none;rounded=0;orthogonalLoop=1;jettySize=auto;html=1;exitX=0.25;exitY=1;exitDx=0;exitDy=0;startArrow=none;startFill=0;endArrow=classicThin;endFill=1;fillColor=#e1d5e7;strokeColor=#9673a6;" parent="1" source="YFGiQ5MIki4B_HdZWA-Z-127" target="YFGiQ5MIki4B_HdZWA-Z-168" edge="1">
          <mxGeometry relative="1" as="geometry" />
        </mxCell>
        <mxCell id="YFGiQ5MIki4B_HdZWA-Z-177" style="edgeStyle=none;rounded=0;orthogonalLoop=1;jettySize=auto;html=1;exitX=0.75;exitY=1;exitDx=0;exitDy=0;entryX=0;entryY=0.5;entryDx=0;entryDy=0;startArrow=none;startFill=0;endArrow=classicThin;endFill=1;fillColor=#dae8fc;strokeColor=#6c8ebf;" parent="1" source="YFGiQ5MIki4B_HdZWA-Z-127" target="YFGiQ5MIki4B_HdZWA-Z-176" edge="1">
          <mxGeometry relative="1" as="geometry" />
        </mxCell>
        <mxCell id="YFGiQ5MIki4B_HdZWA-Z-127" value="&lt;font style=&quot;font-size: 8px&quot;&gt;UNI Плоскю Напралю&lt;/font&gt;" style="rounded=1;whiteSpace=wrap;html=1;" parent="1" vertex="1">
          <mxGeometry x="570" y="1120" width="90" height="20" as="geometry" />
        </mxCell>
        <mxCell id="YFGiQ5MIki4B_HdZWA-Z-175" style="edgeStyle=none;rounded=0;orthogonalLoop=1;jettySize=auto;html=1;exitX=0.75;exitY=1;exitDx=0;exitDy=0;startArrow=none;startFill=0;endArrow=classicThin;endFill=1;fillColor=#e1d5e7;strokeColor=#9673a6;" parent="1" source="YFGiQ5MIki4B_HdZWA-Z-128" target="YFGiQ5MIki4B_HdZWA-Z-168" edge="1">
          <mxGeometry relative="1" as="geometry" />
        </mxCell>
        <mxCell id="YFGiQ5MIki4B_HdZWA-Z-128" value="&lt;font style=&quot;font-size: 8px&quot;&gt;UNI П-обрю Направл.&lt;/font&gt;" style="rounded=1;whiteSpace=wrap;html=1;" parent="1" vertex="1">
          <mxGeometry x="687" y="1120" width="100" height="20" as="geometry" />
        </mxCell>
        <mxCell id="YFGiQ5MIki4B_HdZWA-Z-130" value="&lt;font style=&quot;font-size: 29px&quot;&gt;РУЛОННЫЕ ШТОРЫ&lt;/font&gt;" style="text;html=1;align=center;verticalAlign=middle;resizable=0;points=[];autosize=1;" parent="1" vertex="1">
          <mxGeometry x="415" y="980" width="300" height="20" as="geometry" />
        </mxCell>
        <mxCell id="YFGiQ5MIki4B_HdZWA-Z-172" style="edgeStyle=none;rounded=0;orthogonalLoop=1;jettySize=auto;html=1;exitX=0;exitY=0.5;exitDx=0;exitDy=0;startArrow=none;startFill=0;endArrow=classicThin;endFill=1;fillColor=#d5e8d4;strokeColor=#82b366;" parent="1" source="YFGiQ5MIki4B_HdZWA-Z-131" target="YFGiQ5MIki4B_HdZWA-Z-171" edge="1">
          <mxGeometry relative="1" as="geometry" />
        </mxCell>
        <mxCell id="YFGiQ5MIki4B_HdZWA-Z-131" value="&lt;div style=&quot;text-align: left&quot;&gt;&lt;span style=&quot;font-size: 8px&quot;&gt;1. Сделать Select наценка от 15% до 100% все вкладки кратны 5%&lt;/span&gt;&lt;/div&gt;&lt;div style=&quot;text-align: left&quot;&gt;&lt;span style=&quot;font-size: 8px&quot;&gt;2. сделать конвертер валют с доллара на гривну . Клиент вводит курс долара в гривнах ему выхает цену. Просто цена умножается на то что он ввел&lt;/span&gt;&lt;/div&gt;" style="whiteSpace=wrap;html=1;fillColor=#d5e8d4;strokeColor=#82b366;" parent="1" vertex="1">
          <mxGeometry x="30" y="1210" width="190" height="70" as="geometry" />
        </mxCell>
        <mxCell id="YFGiQ5MIki4B_HdZWA-Z-135" value="&lt;div style=&quot;text-align: left&quot;&gt;&lt;span style=&quot;font-size: 8px&quot;&gt;1. Не считать площадь меньше 0.7&amp;nbsp;&lt;/span&gt;&lt;/div&gt;&lt;div style=&quot;text-align: left&quot;&gt;&lt;span style=&quot;font-size: 8px&quot;&gt;2. Добавить тип управлениия как у вертикальных , типо: Т1 , т2 итд&lt;/span&gt;&lt;/div&gt;&lt;div style=&quot;text-align: left&quot;&gt;&lt;span style=&quot;font-size: 8px&quot;&gt;3. В Бел / Кор меняется цена. Если выбран коричневый то к цене добавляется +1 , +2 , +3 , +4&lt;/span&gt;&lt;br style=&quot;font-size: 8px&quot;&gt;&lt;/div&gt;" style="whiteSpace=wrap;html=1;fillColor=#dae8fc;strokeColor=#6c8ebf;" parent="1" vertex="1">
          <mxGeometry x="100" y="1310" width="145" height="100" as="geometry" />
        </mxCell>
        <mxCell id="YFGiQ5MIki4B_HdZWA-Z-138" value="&lt;span style=&quot;font-size: 8px&quot;&gt;1. Во владве ДЕНЬ НОЧЬ&amp;nbsp; поменять название на EcoCompact&lt;/span&gt;" style="whiteSpace=wrap;html=1;align=left;fillColor=#fff2cc;strokeColor=#d6b656;" parent="1" vertex="1">
          <mxGeometry x="40" y="1090" width="120" height="60" as="geometry" />
        </mxCell>
        <mxCell id="YFGiQ5MIki4B_HdZWA-Z-140" value="&lt;span style=&quot;font-size: 8px&quot;&gt;1.Разделить эти две системы. У них просто одинаковые расценки.&lt;/span&gt;" style="whiteSpace=wrap;html=1;align=left;fillColor=#dae8fc;strokeColor=#6c8ebf;" parent="1" vertex="1">
          <mxGeometry x="120" y="1000" width="120" height="60" as="geometry" />
        </mxCell>
        <mxCell id="YFGiQ5MIki4B_HdZWA-Z-143" value="&lt;font style=&quot;line-height: 60% ; font-size: 8px&quot;&gt;1. Добавить выбор Размер: СТД или РГ. по умлчани. СТД ,если СТД то в бланк попадать не будет&lt;br&gt;&lt;br&gt;&lt;/font&gt;" style="whiteSpace=wrap;html=1;fillColor=#ffe6cc;strokeColor=#d79b00;align=left;" parent="1" vertex="1">
          <mxGeometry x="295" y="1325" width="150" height="70" as="geometry" />
        </mxCell>
        <mxCell id="YFGiQ5MIki4B_HdZWA-Z-152" style="edgeStyle=none;rounded=0;orthogonalLoop=1;jettySize=auto;html=1;exitX=1;exitY=0.5;exitDx=0;exitDy=0;entryX=0;entryY=0.5;entryDx=0;entryDy=0;endArrow=none;endFill=0;" parent="1" source="YFGiQ5MIki4B_HdZWA-Z-124" target="YFGiQ5MIki4B_HdZWA-Z-125" edge="1">
          <mxGeometry relative="1" as="geometry" />
        </mxCell>
        <mxCell id="YFGiQ5MIki4B_HdZWA-Z-165" style="edgeStyle=none;rounded=0;orthogonalLoop=1;jettySize=auto;html=1;exitX=0.75;exitY=1;exitDx=0;exitDy=0;endArrow=classic;endFill=1;fillColor=#d5e8d4;strokeColor=#82b366;" parent="1" source="YFGiQ5MIki4B_HdZWA-Z-124" target="YFGiQ5MIki4B_HdZWA-Z-162" edge="1">
          <mxGeometry relative="1" as="geometry" />
        </mxCell>
        <mxCell id="YFGiQ5MIki4B_HdZWA-Z-124" value="&lt;font style=&quot;font-size: 8px&quot;&gt;MINI&lt;/font&gt;" style="rounded=1;whiteSpace=wrap;html=1;" parent="1" vertex="1">
          <mxGeometry x="360" y="1120" width="30" height="20" as="geometry" />
        </mxCell>
        <mxCell id="YFGiQ5MIki4B_HdZWA-Z-159" value="шторы открытого типа" style="text;html=1;align=center;verticalAlign=middle;resizable=0;points=[];autosize=1;" parent="1" vertex="1">
          <mxGeometry x="300" y="1080" width="140" height="20" as="geometry" />
        </mxCell>
        <mxCell id="YFGiQ5MIki4B_HdZWA-Z-160" value="закрытого типа" style="text;html=1;align=center;verticalAlign=middle;resizable=0;points=[];autosize=1;" parent="1" vertex="1">
          <mxGeometry x="630" y="1080" width="100" height="20" as="geometry" />
        </mxCell>
        <mxCell id="YFGiQ5MIki4B_HdZWA-Z-169" style="edgeStyle=none;rounded=0;orthogonalLoop=1;jettySize=auto;html=1;exitX=1;exitY=0.5;exitDx=0;exitDy=0;endArrow=classic;endFill=1;startArrow=classic;startFill=1;" parent="1" source="YFGiQ5MIki4B_HdZWA-Z-162" target="YFGiQ5MIki4B_HdZWA-Z-168" edge="1">
          <mxGeometry relative="1" as="geometry" />
        </mxCell>
        <mxCell id="YFGiQ5MIki4B_HdZWA-Z-162" value="&lt;font style=&quot;line-height: 60% ; font-size: 8px&quot;&gt;1. Выбор системы фиксации, Добавить radio &quot;без фиксации&quot;, по умолчанию идет это radio. За магнидную фиксацию досчитывается 0.9 дол за коплект.(прибавляется к цене)&lt;br&gt;&lt;br&gt;Цены на Направлющую струну:&lt;br&gt;РУЛ ШТОРЫ: Compact, Mini Standard = 0.9 дол, Maximus = 2.5 дол&lt;br&gt;ДЕНЬ НОЧЬ: Compact, Mini Standard = 1.2 дол, Maximus = 3.0 дол&lt;br&gt;&lt;br&gt;&lt;br&gt;&lt;/font&gt;" style="whiteSpace=wrap;html=1;fillColor=#d5e8d4;strokeColor=#82b366;align=left;" parent="1" vertex="1">
          <mxGeometry x="490" y="1300" width="270" height="120" as="geometry" />
        </mxCell>
        <mxCell id="YFGiQ5MIki4B_HdZWA-Z-168" value="&lt;font style=&quot;line-height: 60% ; font-size: 8px&quot;&gt;1. При выборе системы фиксации можно выбрать только &quot;Без фиксации&quot;.&lt;br&gt;Возможно даже полностью убрать выбор системы фиксации.&lt;br&gt;&lt;/font&gt;" style="whiteSpace=wrap;html=1;fillColor=#e1d5e7;strokeColor=#9673a6;align=left;" parent="1" vertex="1">
          <mxGeometry x="830" y="1325" width="150" height="70" as="geometry" />
        </mxCell>
        <mxCell id="YFGiQ5MIki4B_HdZWA-Z-170" value="&lt;font style=&quot;font-size: 6px&quot;&gt;система фиксации&lt;/font&gt;" style="text;html=1;align=center;verticalAlign=middle;resizable=0;points=[];autosize=1;" parent="1" vertex="1">
          <mxGeometry x="760" y="1340" width="70" height="20" as="geometry" />
        </mxCell>
        <mxCell id="YFGiQ5MIki4B_HdZWA-Z-171" value="&lt;font style=&quot;font-size: 8px ; line-height: 80%&quot;&gt;1. Дабавить radio или select Груз цепи с пунктами Без цепи(по умолчманию) и груз цепи .&lt;br&gt;Груз цепи стоит 0.2 дол / штука. Добавляется ко всем кроме &quot;Фалш шторы&quot;&lt;br&gt;2.&amp;nbsp; Дабавить radio или select фиксатор цепи(фикс цепи) с пунктами Без цепи(по умолчманию) и фикс. цепи&amp;nbsp; .&lt;br&gt;Фикс. цепи стоит 0.2 дол / штука. Добавляется ко всем кроме &quot;Фалш шторы&quot;, standard и maximus &lt;br&gt;3. но К колонками&amp;nbsp;standard и maximus добавляется фиксатор цепи униваерсальный (фикс цепи универс) стоимость 0.2 дол . тот же принцып что и во втором пункте.&lt;br&gt;&lt;br&gt;&lt;/font&gt;" style="whiteSpace=wrap;html=1;fillColor=#d5e8d4;strokeColor=#82b366;align=left;" parent="1" vertex="1">
          <mxGeometry x="-290" y="1180" width="280" height="170" as="geometry" />
        </mxCell>
        <mxCell id="YFGiQ5MIki4B_HdZWA-Z-176" value="&lt;font style=&quot;line-height: 60% ; font-size: 8px&quot;&gt;1.Добавить вторую ширину (input) &quot;Ширина стекла&quot;. Эта ширина не на что не влияет, а просто добавляется в бланк к основной ширине через дробь. Текст основной ширины изменить на &quot;Ширина ребра&quot;&lt;br&gt;2. Дабавить radio или select Доп скот с пунктами:Без скотча(по умолчанию) и Доп. скотч.&lt;br&gt;Если выбран пункт Доп. скотч то за каждый метр высоты к цене будет добавляться 0.8 дол&lt;br&gt;&lt;br&gt;&lt;/font&gt;" style="whiteSpace=wrap;html=1;fillColor=#dae8fc;strokeColor=#6c8ebf;align=left;" parent="1" vertex="1">
          <mxGeometry x="830" y="1150" width="210" height="140" as="geometry" />
        </mxCell>
        <mxCell id="9F95oLKKVyq8y8i5-dEC-15" style="rounded=0;orthogonalLoop=1;jettySize=auto;html=1;exitX=1;exitY=0.5;exitDx=0;exitDy=0;entryX=0;entryY=0.5;entryDx=0;entryDy=0;" edge="1" parent="1" source="9F95oLKKVyq8y8i5-dEC-3" target="9F95oLKKVyq8y8i5-dEC-14">
          <mxGeometry relative="1" as="geometry" />
        </mxCell>
        <mxCell id="9F95oLKKVyq8y8i5-dEC-3" value="&lt;span style=&quot;font-size: 8px&quot;&gt;&amp;nbsp;ДЛЯ КОЛОНОК ОТКРЫТОГО ТИПА&lt;/span&gt;" style="rounded=1;whiteSpace=wrap;html=1;" vertex="1" parent="1">
          <mxGeometry x="-95" y="1855" width="140" height="20" as="geometry" />
        </mxCell>
        <mxCell id="9F95oLKKVyq8y8i5-dEC-24" style="edgeStyle=none;rounded=0;orthogonalLoop=1;jettySize=auto;html=1;exitX=1;exitY=0;exitDx=0;exitDy=0;" edge="1" parent="1" source="9F95oLKKVyq8y8i5-dEC-5" target="9F95oLKKVyq8y8i5-dEC-23">
          <mxGeometry relative="1" as="geometry" />
        </mxCell>
        <mxCell id="9F95oLKKVyq8y8i5-dEC-5" value="&lt;span style=&quot;font-size: 8px&quot;&gt;ДЛЯ ПЕРВЫХ ДВУХ ВКЛАДОК&lt;/span&gt;" style="rounded=1;whiteSpace=wrap;html=1;" vertex="1" parent="1">
          <mxGeometry x="-120" y="1720" width="155" height="20" as="geometry" />
        </mxCell>
        <mxCell id="9F95oLKKVyq8y8i5-dEC-14" value="&lt;font style=&quot;line-height: 60% ; font-size: 8px&quot;&gt;1. Добавить выбор Размер: СТД или РГ. по умлчани. СТД ,если СТД то в бланк попадать не будет&lt;br&gt;&lt;br&gt;&lt;/font&gt;" style="whiteSpace=wrap;html=1;fillColor=#ffe6cc;strokeColor=#d79b00;align=left;" vertex="1" parent="1">
          <mxGeometry x="110" y="1830" width="150" height="70" as="geometry" />
        </mxCell>
        <mxCell id="9F95oLKKVyq8y8i5-dEC-21" style="edgeStyle=none;rounded=0;orthogonalLoop=1;jettySize=auto;html=1;exitX=1;exitY=0.5;exitDx=0;exitDy=0;" edge="1" parent="1" source="9F95oLKKVyq8y8i5-dEC-18" target="9F95oLKKVyq8y8i5-dEC-19">
          <mxGeometry relative="1" as="geometry" />
        </mxCell>
        <mxCell id="9F95oLKKVyq8y8i5-dEC-18" value="&lt;span style=&quot;font-size: 8px&quot;&gt;ДЛЯ ВСЕХ ВКЛАДОК ВКЛЮЧАЯ ГОТОВЫЕ ШТОРЫ&lt;/span&gt;" style="rounded=1;whiteSpace=wrap;html=1;" vertex="1" parent="1">
          <mxGeometry x="-155" y="1580" width="200" height="20" as="geometry" />
        </mxCell>
        <mxCell id="9F95oLKKVyq8y8i5-dEC-19" value="&lt;div style=&quot;text-align: left&quot;&gt;&lt;span style=&quot;font-size: 8px&quot;&gt;1. Сделать Select наценка от 15% до 100% все вкладки кратны 5%&lt;/span&gt;&lt;/div&gt;&lt;div style=&quot;text-align: left&quot;&gt;&lt;span style=&quot;font-size: 8px&quot;&gt;2. сделать конвертер валют с доллара на гривну . Клиент вводит курс долара в гривнах ему выхает цену. Просто цена умножается на то что он ввел&lt;/span&gt;&lt;/div&gt;" style="whiteSpace=wrap;html=1;fillColor=#d5e8d4;strokeColor=#82b366;" vertex="1" parent="1">
          <mxGeometry x="85" y="1540" width="190" height="70" as="geometry" />
        </mxCell>
        <mxCell id="9F95oLKKVyq8y8i5-dEC-23" value="&lt;div style=&quot;text-align: left&quot;&gt;&lt;span style=&quot;font-size: 8px&quot;&gt;1. Не считать площадь меньше 0.7&amp;nbsp;&lt;/span&gt;&lt;/div&gt;&lt;div style=&quot;text-align: left&quot;&gt;&lt;span style=&quot;font-size: 8px&quot;&gt;2. Добавить тип управлениия как у вертикальных , типо: Т1 , т2 итд&lt;/span&gt;&lt;/div&gt;&lt;div style=&quot;text-align: left&quot;&gt;&lt;span style=&quot;font-size: 8px&quot;&gt;3. В Бел / Кор меняется цена. Если выбран коричневый то к цене добавляется +1 , +2 , +3 , +4&lt;/span&gt;&lt;br style=&quot;font-size: 8px&quot;&gt;&lt;/div&gt;" style="whiteSpace=wrap;html=1;fillColor=#dae8fc;strokeColor=#6c8ebf;" vertex="1" parent="1">
          <mxGeometry x="90" y="1670" width="145" height="100" as="geometry" />
        </mxCell>
        <mxCell id="9F95oLKKVyq8y8i5-dEC-43" style="edgeStyle=none;rounded=0;orthogonalLoop=1;jettySize=auto;html=1;exitX=1;exitY=0.25;exitDx=0;exitDy=0;" edge="1" parent="1" source="9F95oLKKVyq8y8i5-dEC-26" target="9F95oLKKVyq8y8i5-dEC-27">
          <mxGeometry relative="1" as="geometry" />
        </mxCell>
        <mxCell id="9F95oLKKVyq8y8i5-dEC-26" value="&lt;span style=&quot;font-size: 8px&quot;&gt;СИСТЕМА ФИКСАЦИИ ДЛЯ КОЛОНОК ОТКРЫТОГО ТИПА КРОМЕ ФАЛШ ШТОР&lt;/span&gt;" style="rounded=1;whiteSpace=wrap;html=1;" vertex="1" parent="1">
          <mxGeometry x="-270" y="1960" width="330" height="20" as="geometry" />
        </mxCell>
        <mxCell id="9F95oLKKVyq8y8i5-dEC-27" value="&lt;font style=&quot;line-height: 60% ; font-size: 8px&quot;&gt;1. Выбор системы фиксации, Добавить radio &quot;без фиксации&quot;, по умолчанию идет это radio. За магнидную фиксацию досчитывается 0.9 дол за коплект.(прибавляется к цене)&lt;br&gt;&lt;br&gt;Цены на Направлющую струну:&lt;br&gt;РУЛ ШТОРЫ: Compact, Mini Standard = 0.9 дол, Maximus = 2.5 дол&lt;br&gt;ДЕНЬ НОЧЬ: Compact, Mini Standard = 1.2 дол, Maximus = 3.0 дол&lt;br&gt;&lt;br&gt;&lt;br&gt;&lt;/font&gt;" style="whiteSpace=wrap;html=1;fillColor=#d5e8d4;strokeColor=#82b366;align=left;" vertex="1" parent="1">
          <mxGeometry x="110" y="1920" width="270" height="120" as="geometry" />
        </mxCell>
        <mxCell id="9F95oLKKVyq8y8i5-dEC-29" value="&lt;font style=&quot;line-height: 60% ; font-size: 8px&quot;&gt;1. При выборе системы фиксации можно выбрать только &quot;Без фиксации&quot;.&lt;br&gt;Возможно даже полностью убрать выбор системы фиксации.&lt;br&gt;&lt;/font&gt;" style="whiteSpace=wrap;html=1;fillColor=#e1d5e7;strokeColor=#9673a6;align=left;" vertex="1" parent="1">
          <mxGeometry x="105" y="2080" width="150" height="70" as="geometry" />
        </mxCell>
        <mxCell id="9F95oLKKVyq8y8i5-dEC-42" style="edgeStyle=none;rounded=0;orthogonalLoop=1;jettySize=auto;html=1;exitX=1;exitY=0.5;exitDx=0;exitDy=0;" edge="1" parent="1" source="9F95oLKKVyq8y8i5-dEC-30" target="9F95oLKKVyq8y8i5-dEC-29">
          <mxGeometry relative="1" as="geometry" />
        </mxCell>
        <mxCell id="9F95oLKKVyq8y8i5-dEC-30" value="&lt;span style=&quot;font-size: 8px&quot;&gt;СИСТЕМА ФИКСАЦИИ ДЛЯ ФАЛЬШ ШТОР И ЗАКРЫТОГО ТИПА&lt;/span&gt;" style="rounded=1;whiteSpace=wrap;html=1;" vertex="1" parent="1">
          <mxGeometry x="-275" y="2115" width="330" height="20" as="geometry" />
        </mxCell>
        <mxCell id="9F95oLKKVyq8y8i5-dEC-34" style="edgeStyle=none;rounded=0;orthogonalLoop=1;jettySize=auto;html=1;exitX=1;exitY=0.5;exitDx=0;exitDy=0;" edge="1" parent="1" source="9F95oLKKVyq8y8i5-dEC-32" target="9F95oLKKVyq8y8i5-dEC-33">
          <mxGeometry relative="1" as="geometry" />
        </mxCell>
        <mxCell id="9F95oLKKVyq8y8i5-dEC-32" value="&lt;font style=&quot;font-size: 8px&quot;&gt;ТОЛЬКО&amp;nbsp; ДЛЯ UNI Плоскю Напралю&lt;/font&gt;" style="rounded=1;whiteSpace=wrap;html=1;" vertex="1" parent="1">
          <mxGeometry x="-155" y="2662.5" width="205" height="20" as="geometry" />
        </mxCell>
        <mxCell id="9F95oLKKVyq8y8i5-dEC-33" value="&lt;font style=&quot;line-height: 60% ; font-size: 8px&quot;&gt;1.Добавить вторую ширину (input) &quot;Ширина стекла&quot;. Эта ширина не на что не влияет, а просто добавляется в бланк к основной ширине через дробь. Текст основной ширины изменить на &quot;Ширина ребра&quot;&lt;br&gt;2. Дабавить radio или select Доп скот с пунктами:Без скотча(по умолчанию) и Доп. скотч.&lt;br&gt;Если выбран пункт Доп. скотч то за каждый метр высоты к цене будет добавляться 0.8 дол&lt;br&gt;&lt;br&gt;&lt;/font&gt;" style="whiteSpace=wrap;html=1;fillColor=#dae8fc;strokeColor=#6c8ebf;align=left;" vertex="1" parent="1">
          <mxGeometry x="115" y="2602.5" width="210" height="140" as="geometry" />
        </mxCell>
        <mxCell id="9F95oLKKVyq8y8i5-dEC-37" style="edgeStyle=none;rounded=0;orthogonalLoop=1;jettySize=auto;html=1;exitX=1;exitY=0.25;exitDx=0;exitDy=0;" edge="1" parent="1" source="9F95oLKKVyq8y8i5-dEC-35" target="9F95oLKKVyq8y8i5-dEC-36">
          <mxGeometry relative="1" as="geometry" />
        </mxCell>
        <mxCell id="9F95oLKKVyq8y8i5-dEC-39" style="edgeStyle=none;rounded=0;orthogonalLoop=1;jettySize=auto;html=1;exitX=1;exitY=0.75;exitDx=0;exitDy=0;" edge="1" parent="1" source="9F95oLKKVyq8y8i5-dEC-35" target="9F95oLKKVyq8y8i5-dEC-38">
          <mxGeometry relative="1" as="geometry" />
        </mxCell>
        <mxCell id="9F95oLKKVyq8y8i5-dEC-35" value="&lt;font style=&quot;font-size: 8px&quot;&gt;ТОЛЬКО ДЛЯ COMPACT&amp;nbsp;&lt;/font&gt;" style="rounded=1;whiteSpace=wrap;html=1;" vertex="1" parent="1">
          <mxGeometry x="-155" y="2842.5" width="205" height="20" as="geometry" />
        </mxCell>
        <mxCell id="9F95oLKKVyq8y8i5-dEC-36" value="&lt;span style=&quot;font-size: 8px&quot;&gt;1. Во владве ДЕНЬ НОЧЬ&amp;nbsp; поменять название на EcoCompact&lt;/span&gt;" style="whiteSpace=wrap;html=1;align=left;fillColor=#fff2cc;strokeColor=#d6b656;" vertex="1" parent="1">
          <mxGeometry x="105" y="2782.5" width="120" height="60" as="geometry" />
        </mxCell>
        <mxCell id="9F95oLKKVyq8y8i5-dEC-38" value="&lt;span style=&quot;font-size: 8px&quot;&gt;1.Разделить эти две системы. У них просто одинаковые расценки.&lt;/span&gt;" style="whiteSpace=wrap;html=1;align=left;fillColor=#dae8fc;strokeColor=#6c8ebf;" vertex="1" parent="1">
          <mxGeometry x="105" y="2862.5" width="120" height="60" as="geometry" />
        </mxCell>
        <mxCell id="9F95oLKKVyq8y8i5-dEC-41" style="edgeStyle=none;rounded=0;orthogonalLoop=1;jettySize=auto;html=1;exitX=1;exitY=0.25;exitDx=0;exitDy=0;entryX=0;entryY=0.5;entryDx=0;entryDy=0;" edge="1" parent="1" source="9F95oLKKVyq8y8i5-dEC-40" target="9F95oLKKVyq8y8i5-dEC-38">
          <mxGeometry relative="1" as="geometry" />
        </mxCell>
        <mxCell id="9F95oLKKVyq8y8i5-dEC-40" value="&lt;font style=&quot;font-size: 8px&quot;&gt;ТОЛЬКО ДЛЯ ФАЛШ ШТОР&lt;/font&gt;" style="rounded=1;whiteSpace=wrap;html=1;" vertex="1" parent="1">
          <mxGeometry x="-152.5" y="2902.5" width="205" height="20" as="geometry" />
        </mxCell>
        <mxCell id="9F95oLKKVyq8y8i5-dEC-46" style="edgeStyle=none;rounded=0;orthogonalLoop=1;jettySize=auto;html=1;exitX=1;exitY=0.5;exitDx=0;exitDy=0;entryX=0;entryY=0.5;entryDx=0;entryDy=0;" edge="1" parent="1" source="9F95oLKKVyq8y8i5-dEC-44" target="9F95oLKKVyq8y8i5-dEC-45">
          <mxGeometry relative="1" as="geometry" />
        </mxCell>
        <mxCell id="9F95oLKKVyq8y8i5-dEC-44" value="&lt;span style=&quot;font-size: 8px&quot;&gt;ДЛЯ ВСЕХ КОЛОНОК КРОМЕ ФАЛШ ШТОР&lt;/span&gt;" style="rounded=1;whiteSpace=wrap;html=1;" vertex="1" parent="1">
          <mxGeometry x="-130" y="2250" width="190" height="20" as="geometry" />
        </mxCell>
        <mxCell id="9F95oLKKVyq8y8i5-dEC-45" value="&lt;font style=&quot;font-size: 8px ; line-height: 80%&quot;&gt;1. Дабавить radio или select Груз цепи с пунктами Без цепи(по умолчманию) и груз цепи .&lt;br&gt;Груз цепи стоит 0.2 дол / штука. Добавляется ко всем кроме &quot;Фалш шторы&quot;&lt;br&gt;&lt;br&gt;&lt;/font&gt;" style="whiteSpace=wrap;html=1;fillColor=#d5e8d4;strokeColor=#82b366;align=left;" vertex="1" parent="1">
          <mxGeometry x="100" y="2217.5" width="280" height="85" as="geometry" />
        </mxCell>
        <mxCell id="9F95oLKKVyq8y8i5-dEC-49" style="edgeStyle=none;rounded=0;orthogonalLoop=1;jettySize=auto;html=1;exitX=1;exitY=0.5;exitDx=0;exitDy=0;" edge="1" parent="1" source="9F95oLKKVyq8y8i5-dEC-47" target="9F95oLKKVyq8y8i5-dEC-48">
          <mxGeometry relative="1" as="geometry" />
        </mxCell>
        <mxCell id="9F95oLKKVyq8y8i5-dEC-47" value="&lt;span style=&quot;font-size: 8px&quot;&gt;ФИКСАТОР ЦЕПИ ДЛЯ ВСЕХ КОЛОНОК КРОМЕ ФАЛШ ШТОР ,STANDARD И MAXIMUS&lt;/span&gt;" style="rounded=1;whiteSpace=wrap;html=1;" vertex="1" parent="1">
          <mxGeometry x="-290" y="2380" width="345" height="20" as="geometry" />
        </mxCell>
        <mxCell id="9F95oLKKVyq8y8i5-dEC-48" value="&lt;font style=&quot;font-size: 8px ; line-height: 80%&quot;&gt;1/&amp;nbsp; Дабавить radio или select фиксатор цепи(фикс цепи) с пунктами Без цепи(по умолчманию) и фикс. цепи&amp;nbsp; .&lt;br&gt;Фикс. цепи стоит 0.2 дол / штука. Добавляется ко всем кроме &quot;Фалш шторы&quot;, standard и maximus&amp;nbsp;&lt;br&gt;&lt;/font&gt;" style="whiteSpace=wrap;html=1;fillColor=#d5e8d4;strokeColor=#82b366;align=left;" vertex="1" parent="1">
          <mxGeometry x="105" y="2338" width="280" height="85" as="geometry" />
        </mxCell>
        <mxCell id="9F95oLKKVyq8y8i5-dEC-52" style="edgeStyle=none;rounded=0;orthogonalLoop=1;jettySize=auto;html=1;exitX=1;exitY=0.5;exitDx=0;exitDy=0;" edge="1" parent="1" source="9F95oLKKVyq8y8i5-dEC-50" target="9F95oLKKVyq8y8i5-dEC-51">
          <mxGeometry relative="1" as="geometry" />
        </mxCell>
        <mxCell id="9F95oLKKVyq8y8i5-dEC-50" value="&lt;span style=&quot;font-size: 8px&quot;&gt;ФИКСАТОР ЦЕПИ ТОЛЬКО ДЛЯ ,STANDARD И MAXIMUS&lt;/span&gt;" style="rounded=1;whiteSpace=wrap;html=1;" vertex="1" parent="1">
          <mxGeometry x="-250" y="2490" width="305" height="20" as="geometry" />
        </mxCell>
        <mxCell id="9F95oLKKVyq8y8i5-dEC-51" value="&lt;font style=&quot;font-size: 8px ; line-height: 80%&quot;&gt;1.но К колонками&amp;nbsp;standard и maximus добавляется фиксатор цепи униваерсальный (фикс цепи универс) стоимость 0.2 дол . тот же принцып что и во втором пункте.&lt;br&gt;&lt;/font&gt;" style="whiteSpace=wrap;html=1;fillColor=#d5e8d4;strokeColor=#82b366;align=left;" vertex="1" parent="1">
          <mxGeometry x="105" y="2470" width="280" height="72.5" as="geometry" />
        </mxCell>
      </root>
    </mxGraphModel>
  </diagram>
</mxfile>
